SplineFontDB: 3.0
FontName: hngl
FullName: hngl
FamilyName: vtf_hngl
Weight: Medium
Copyright: Sebastien Hayez, SIL OFL licence, 2011
Version: 001.000
ItalicAngle: 0
UnderlinePosition: -100
UnderlineWidth: 50
Ascent: 700
Descent: 300
sfntRevision: 0x00020000
LayerCount: 2
Layer: 0 0 "Arri+AOgA-re"  1
Layer: 1 0 "Avant"  0
NeedsXUIDChange: 1
XUID: [1021 112 18547 12049]
FSType: 0
OS2Version: 3
OS2_WeightWidthSlopeOnly: 0
OS2_UseTypoMetrics: 1
CreationTime: 1300035512
ModificationTime: 1303222558
PfmFamily: 17
TTFWeight: 500
TTFWidth: 5
LineGap: 90
VLineGap: 0
Panose: 2 0 6 3 0 0 0 0 0 0
OS2TypoAscent: 0
OS2TypoAOffset: 1
OS2TypoDescent: 0
OS2TypoDOffset: 1
OS2TypoLinegap: 90
OS2WinAscent: 0
OS2WinAOffset: 1
OS2WinDescent: 0
OS2WinDOffset: 1
HheadAscent: 0
HheadAOffset: 1
HheadDescent: 0
HheadDOffset: 1
OS2SubXSize: 650
OS2SubYSize: 700
OS2SubXOff: 0
OS2SubYOff: 140
OS2SupXSize: 650
OS2SupYSize: 700
OS2SupXOff: 0
OS2SupYOff: 480
OS2StrikeYSize: 49
OS2StrikeYPos: 258
OS2Vendor: 'PfEd'
OS2CodePages: 00000001.00000000
OS2UnicodeRanges: 00000003.00000000.00000000.00000000
Lookup: 258 0 0 "'kern' Cr+AOkA-nage horizontal dans Latin lookup 0"  {"sous-table 'kern' Cr+AOkA-nage horizontal dans Latin lookup 0"  } ['kern' ('DFLT' <'dflt' > 'latn' <'dflt' > ) ]
MarkAttachClasses: 1
DEI: 91125
LangName: 1033 
Encoding: UnicodeBmp
UnicodeInterp: none
NameList: Adobe Glyph List
DisplaySize: -24
AntiAlias: 1
FitToEm: 1
WinInfo: 0 75 22
BeginPrivate: 9
BlueValues 21 [0 0 338 338 472 608]
OtherBlues 11 [-270 -270]
BlueScale 8 0.039625
BlueShift 1 0
StdHW 4 [67]
StdVW 4 [67]
StemSnapH 22 [64 67 98 135 199 202]
StemSnapV 20 [67 101 135 202 270]
ExpansionFactor 4 0.06
EndPrivate
BeginChars: 65537 123

StartChar: .notdef
Encoding: 65536 -1 0
Width: 500
Flags: MW
HStem: 0 50<100 400 100 450> 416 50<100 400 100 100>
VStem: 50 50<50 50 50 416> 400 50<50 416 416 416>
LayerCount: 2
Fore
SplineSet
50 0 m 1
 50 466 l 1
 450 466 l 1
 450 0 l 1
 50 0 l 1
100 50 m 1
 400 50 l 1
 400 416 l 1
 100 416 l 1
 100 50 l 1
EndSplineSet
Validated: 1
EndChar

StartChar: exclam
Encoding: 33 33 2
Width: 184
Flags: MW
HStem: 0 67.5<58.25 125.75 58.25 125.75> 452.5 20G<58.25 125.75 125.75 125.75>
VStem: 58.25 67.5<0 67.5 0 67.5 135 472.5>
LayerCount: 2
Fore
SplineSet
58.25 472.5 m 1
 125.75 472.5 l 1
 125.75 135 l 1
 58.25 135 l 1
 58.25 472.5 l 1
58.25 67.5 m 1
 125.75 67.5 l 1
 125.75 0 l 1
 58.25 0 l 1
 58.25 67.5 l 1
EndSplineSet
Validated: 1
EndChar

StartChar: quotedbl
Encoding: 34 34 3
Width: 254
Flags: MW
HStem: 374 98.2764<42.625 110.125 42.625 110.125 143.875 211.375 42.625 143.875>
VStem: 42.625 67.5<374 472.276 374 472.276> 143.875 67.5<374 472.276 374 472.276>
LayerCount: 2
Fore
SplineSet
143.875 472.276 m 1
 211.375 472.276 l 1
 211.375 374 l 1
 143.875 374 l 1
 143.875 472.276 l 1
42.625 472.276 m 1
 110.125 472.276 l 1
 110.125 374 l 1
 42.625 374 l 1
 42.625 472.276 l 1
EndSplineSet
Validated: 1
EndChar

StartChar: percent
Encoding: 37 37 4
Width: 594
Flags: MW
HStem: 0 64.8633<77.625 145.125 77.625 145.125> 67.5 64.8633<145.125 212.625 145.125 212.625> 133.477 67.5<212.625 216.023 212.625 216.023 215.262 216.023> 268.477 67.5<377.977 378.738 377.977 378.738> 337.5 64.8633<381.375 448.875 381.375 448.875> 403.477 67.5<215 215>
VStem: 49.5 67.5<274.746 329.736 274.746 347.9> 77.625 67.5<0 64.8633 0 64.8633> 145.125 67.5<0 132.363 67.5 132.363 67.5 132.363> 381.375 67.5<337.5 402.363 337.5 402.363> 448.875 67.5<337.5 469.863 405 469.863 405 469.863> 477 67.5<139.746 194.736>
LayerCount: 2
Fore
SplineSet
77.625 64.8633 m 1xfdc0
 145.125 64.8633 l 1
 145.125 0 l 1
 77.625 0 l 1
 77.625 64.8633 l 1xfdc0
145.125 132.363 m 1
 212.625 132.363 l 1
 212.625 67.5 l 1
 145.125 67.5 l 1
 145.125 132.363 l 1
377.977 268.477 m 1
 367.137 214.863 330.633 170.449 282 148.477 c 1
 290.672 102.422 330.516 67.2656 378.738 65.9766 c 1
 433.406 67.4414 477 112.266 477 167.227 c 0xfcd0
 477 222.246 433.406 266.997 378.738 268.477 c 1
 377.977 268.477 l 1
381.375 402.363 m 1
 448.875 402.363 l 1
 448.875 337.5 l 1
 381.375 337.5 l 1
 381.375 402.363 l 1
215.262 403.477 m 1
 160.652 401.997 117 357.246 117 302.227 c 0xfec0
 117 247.266 160.652 202.441 215.262 200.977 c 1
 216.023 200.977 l 1
 226.863 254.604 263.367 299.048 312 320.977 c 1
 303.387 367.017 263.543 402.173 215.262 403.477 c 1
448.875 469.863 m 1
 516.375 469.863 l 1
 516.375 405 l 1xfcc0
 448.875 405 l 1
 448.875 469.863 l 1
212.625 470.977 m 0
 213.562 470.977 214.324 471.035 215.262 470.977 c 0
 216.199 471.035 217.312 470.977 218.25 470.977 c 0
 297.41 468.457 362.801 411.313 377.977 335.977 c 1
 378.738 335.977 l 2
 379.676 336.035 380.438 335.977 381.375 335.977 c 0
 471.961 333.047 544.5 258.574 544.5 167.227 c 0
 544.5 75.9229 471.961 1.4209 381.375 -1.52344 c 1
 378.738 -1.52344 l 1
 375.75 -1.52344 l 1
 296.59 1.05469 231.199 58.1982 216.023 133.477 c 1
 215.262 133.477 l 1
 212.625 133.477 l 1
 122.039 136.421 49.5 210.923 49.5 302.227 c 0xfed0
 49.5 393.574 122.039 468.047 212.625 470.977 c 0
EndSplineSet
Validated: 1
EndChar

StartChar: ampersand
Encoding: 38 38 5
Width: 639
Flags: HMW
HStem: 0 67.5<121.875 189.375 256.875 324.375 391.875 459.375 526.875 594.375 661.875 729.375> 0 202.5<189.375 256.875 459.375 526.875 729.375 796.875 54.375 256.875> 270 67.5<796.875 824.828>
VStem: 54.375 67.5<67.5 337.5 67.5 337.5 67.5 337.5> 189.375 67.5<67.5 202.5 67.5 202.5> 324.375 67.5<67.5 270 67.5 270> 459.375 67.5<67.5 202.5 67.5 202.5> 594.375 67.5<67.5 270 67.5 270> 729.375 67.5<67.5 202.5> 898.125 67.5<140.775 196.703>
LayerCount: 2
Fore
SplineSet
589.5 337.5 m 1x7fc0
 589.5 270 l 1
 522 270 l 2
 466.102 270 420.75 224.707 420.75 168.75 c 0
 420.75 112.852 466.102 67.5 522 67.5 c 1xbfc0
 522 0 l 1
 428.777 0 353.25 75.5859 353.25 168.75 c 0
 353.25 206.836 366.023 241.758 387.234 270 c 1
 319.5 270 l 1
 319.5 337.5 l 1
 589.5 337.5 l 1x7fc0
319.5 270 m 1
 184.266 270 l 1
 199.09 250.312 209.812 227.461 214.852 202.5 c 1
 252 202.5 l 1x7fc0
 252 135 l 1
 214.852 135 l 1
 209.812 109.98 199.031 87.1289 184.266 67.5 c 1
 319.5 67.5 l 1
 319.5 0 l 1xbfc0
 49.5 0 l 1x7fc0
 49.5 67.5 l 1
 105.398 67.5 150.75 112.852 150.75 168.75 c 0
 150.75 224.59 105.34 269.941 49.5 270 c 1
 49.5 337.5 l 1
 319.5 337.5 l 1
 319.5 270 l 1
EndSplineSet
Validated: 8912901
EndChar

StartChar: quotesingle
Encoding: 39 39 6
Width: 153
Flags: MW
HStem: 374 98.2764<42.75 110.25 42.75 110.25>
VStem: 42.75 67.5<374 472.276 374 472.276>
LayerCount: 2
Fore
SplineSet
42.75 472.276 m 1
 110.25 472.276 l 1
 110.25 374 l 1
 42.75 374 l 1
 42.75 472.276 l 1
EndSplineSet
Validated: 1
EndChar

StartChar: parenleft
Encoding: 40 40 7
Width: 268
Flags: MW
HStem: 0 67.5<190.426 218.375 190.426 218.375> 270 67.5<190.426 218.375>
VStem: 49.625 67.5<140.793 196.699 140.793 215.361>
LayerCount: 2
Fore
SplineSet
218.375 337.5 m 1
 218.375 270 l 1
 162.477 270 117.125 224.648 117.125 168.75 c 0
 117.125 112.837 162.477 67.5 218.375 67.5 c 1
 218.375 0 l 1
 125.152 0 49.625 75.5713 49.625 168.75 c 0
 49.625 261.973 125.152 337.5 218.375 337.5 c 1
EndSplineSet
Validated: 1
EndChar

StartChar: parenright
Encoding: 41 41 8
Width: 268
Flags: MW
HStem: 0 67.5<49.625 77.5742 49.625 96.2363> 270 67.5<49.625 77.5742>
VStem: 150.875 67.5<140.793 196.699>
LayerCount: 2
Fore
SplineSet
49.625 337.5 m 1
 142.848 337.5 218.375 261.973 218.375 168.75 c 0
 218.375 75.5713 142.848 0 49.625 0 c 1
 49.625 67.5 l 1
 105.523 67.5 150.875 112.837 150.875 168.75 c 0
 150.875 224.648 105.523 270 49.625 270 c 1
 49.625 337.5 l 1
EndSplineSet
Validated: 1
EndChar

StartChar: plus
Encoding: 43 43 9
Width: 412
Flags: MW
HStem: 0 21G<172.25 239.75 172.25 172.25> 0 21G<172.25 239.75 172.25 172.25> 132.363 67.5<37.25 172.25 37.25 172.25 239.75 374.75>
VStem: 172.25 67.5<0 132.363 0 132.363 199.863 334.863>
LayerCount: 2
Fore
SplineSet
172.25 334.863 m 1xb0
 239.75 334.863 l 1
 239.75 199.863 l 1
 374.75 199.863 l 1
 374.75 132.363 l 1
 239.75 132.363 l 1
 239.75 0 l 1
 172.25 0 l 1
 172.25 132.363 l 1
 37.25 132.363 l 1
 37.25 199.863 l 1
 172.25 199.863 l 1
 172.25 334.863 l 1xb0
EndSplineSet
Validated: 1
EndChar

StartChar: comma
Encoding: 44 44 10
Width: 130
Flags: MW
HStem: -132 199.863<31.25 98.75 31.25 98.75>
VStem: 31.25 67.5<-132 67.8633 -132 67.8633>
LayerCount: 2
Fore
SplineSet
31.25 67.8633 m 1
 98.75 67.8633 l 1
 98.75 -132 l 1
 31.25 -132 l 1
 31.25 67.8633 l 1
EndSplineSet
Validated: 1
EndChar

StartChar: hyphen
Encoding: 45 45 11
Width: 216
Flags: MW
HStem: 135 67.5<40.5 175.5 40.5 175.5>
VStem: 40.5 135<135 202.5 135 202.5>
LayerCount: 2
Fore
SplineSet
40.5 202.5 m 1
 175.5 202.5 l 1
 175.5 135 l 1
 40.5 135 l 1
 40.5 202.5 l 1
EndSplineSet
Validated: 1
EndChar

StartChar: period
Encoding: 46 46 12
Width: 129
Flags: MW
HStem: 0 67.5<30.75 98.25 30.75 98.25>
VStem: 30.75 67.5<0 67.5 0 67.5>
LayerCount: 2
Fore
SplineSet
30.75 67.5 m 1
 98.25 67.5 l 1
 98.25 0 l 1
 30.75 0 l 1
 30.75 67.5 l 1
EndSplineSet
Validated: 1
EndChar

StartChar: slash
Encoding: 47 47 13
Width: 396
Flags: MW
HStem: 0 21G<75.8096 75.8096> 0 21G<75.8096 75.8096> 317.5 20G<320.25 320.25> 317.5 20G<320.25 320.25>
LayerCount: 2
Fore
SplineSet
320.25 337.5 m 1xa0
 367.95 289.92 l 1
 75.8096 0 l 1
 28.0498 47.8799 l 1
 320.25 337.5 l 1xa0
EndSplineSet
Validated: 1
EndChar

StartChar: zero
Encoding: 48 48 14
Width: 438
Flags: MW
HStem: 0 67.5<191.051 246.949 191.051 265.611> 270 67.5<191.051 246.949>
VStem: 50.25 67.5<140.793 196.699 140.793 215.361> 320.25 67.5<140.793 196.699>
LayerCount: 2
Fore
SplineSet
219 337.5 m 0
 312.223 337.5 387.75 261.973 387.75 168.75 c 0
 387.75 75.5713 312.223 0 219 0 c 0
 125.777 0 50.25 75.5713 50.25 168.75 c 0
 50.25 261.973 125.777 337.5 219 337.5 c 0
219 270 m 0
 163.102 270 117.75 224.648 117.75 168.75 c 0
 117.75 112.837 163.102 67.5 219 67.5 c 0
 274.898 67.5 320.25 112.837 320.25 168.75 c 0
 320.25 224.648 274.898 270 219 270 c 0
EndSplineSet
Validated: 1
EndChar

StartChar: one
Encoding: 49 49 15
Width: 181
Flags: MW
HStem: 0 21G<56.75 124.25 56.75 56.75> 0 21G<56.75 124.25 56.75 56.75> 317.5 20G<56.75 124.25 124.25 124.25> 317.5 20G<56.75 124.25 124.25 124.25>
VStem: 56.75 67.5<0 337.5 0 337.5>
LayerCount: 2
Fore
SplineSet
56.75 337.5 m 1xa8
 124.25 337.5 l 1
 124.25 0 l 1
 56.75 0 l 1
 56.75 337.5 l 1xa8
EndSplineSet
Validated: 1
EndChar

StartChar: two
Encoding: 50 50 16
Width: 333
Flags: MW
HStem: 0 67.5<115.875 250.875 115.875 250.875> 135 67.5<115.875 143.824 48.375 162.486> 405 67.5<115.875 143.824>
VStem: 48.375 67.5<67.5 135 67.5 202.5> 217.125 67.5<275.793 331.699>
LayerCount: 2
Fore
SplineSet
115.875 472.5 m 1
 209.098 472.5 284.625 396.973 284.625 303.75 c 0
 284.625 210.571 209.098 135 115.875 135 c 1
 115.875 67.5 l 1
 250.875 67.5 l 1
 250.875 0 l 1
 48.375 0 l 1
 48.375 202.5 l 1
 115.875 202.5 l 2
 171.773 202.5 217.125 247.837 217.125 303.75 c 0
 217.125 359.648 171.773 405 115.875 405 c 1
 115.875 472.5 l 1
EndSplineSet
Validated: 1
EndChar

StartChar: three
Encoding: 51 51 17
Width: 265
Flags: MW
HStem: -136 67.5<48.125 76.0742 48.125 94.707> 134 67.5<48.125 76.0742> 404 67.5<48.125 76.0742>
VStem: 149.375 67.5<4.79346 60.4062 -13.8687 60.6992 275.086 330.699>
CounterMasks: 1 e0
LayerCount: 2
Fore
SplineSet
48.125 471.5 m 1
 141.289 471.5 216.875 395.973 216.875 302.75 c 0
 216.875 247.423 190.156 198.512 149.023 167.75 c 1
 190.156 136.974 216.875 88.0625 216.875 32.75 c 0
 216.875 -60.4873 141.289 -136 48.125 -136 c 1
 48.125 -68.5 l 1
 104.023 -68.5 149.375 -23.1631 149.375 32.75 c 0
 149.375 88.6484 104.023 134 48.125 134 c 1
 48.125 201.5 l 1
 104.023 201.5 149.375 246.837 149.375 302.75 c 0
 149.375 358.648 104.023 404 48.125 404 c 1
 48.125 471.5 l 1
EndSplineSet
Validated: 1
EndChar

StartChar: four
Encoding: 52 52 18
Width: 370
Flags: MW
HStem: 0 21G<252.5 320 252.5 252.5> 0 21G<252.5 320 252.5 252.5> 135 67.5<117.5 252.5 117.5 252.5> 317.5 20G<50 117.5 117.5 117.5> 337.5 21G<50 117.5 117.5 117.5>
VStem: 50 67.5<202.5 337.5 202.5 337.5 202.5 337.5> 252.5 67.5<0 135 135 135 202.5 405 0 405>
LayerCount: 2
Fore
SplineSet
252.5 405 m 1xbe
 320 405 l 1
 320 0 l 1
 252.5 0 l 1
 252.5 135 l 1
 50 135 l 1
 50 337.5 l 1
 117.5 337.5 l 1
 117.5 202.5 l 1
 252.5 202.5 l 1
 252.5 405 l 1xbe
EndSplineSet
Validated: 1
EndChar

StartChar: five
Encoding: 53 53 19
Width: 325
Flags: MW
HStem: 0 67.5<111.875 139.824 111.875 158.486> 270 67.5<44.375 158.486> 405 67.5<111.875 179.375 111.875 111.875>
VStem: 44.375 67.5<337.5 405> 44.375 135<405 472.5 405 472.5 405 472.5> 213.125 67.5<140.793 196.721>
LayerCount: 2
Fore
SplineSet
44.375 472.5 m 1xec
 179.375 472.5 l 1
 179.375 405 l 1xec
 111.875 405 l 1
 111.875 337.5 l 1
 205.098 337.5 280.625 261.973 280.625 168.75 c 0
 280.625 75.5713 205.098 0 111.875 0 c 1
 111.875 67.5 l 1
 167.773 67.5 213.125 112.837 213.125 168.75 c 0
 213.125 224.692 167.773 270 111.875 270 c 2
 44.375 270 l 1xf4
 44.375 472.5 l 1xec
EndSplineSet
Validated: 1
EndChar

StartChar: six
Encoding: 54 54 20
Width: 441
Flags: MW
HStem: 0 67.5<192.551 248.449 192.551 267.111> 270 67.5<201.486 248.449> 452.5 20G<51.75 119.25 119.25 119.25>
VStem: 51.75 67.5<168.75 196.699 303.75 472.5> 321.75 67.5<140.793 196.699>
LayerCount: 2
Fore
SplineSet
51.75 472.5 m 1
 119.25 472.5 l 1
 119.25 303.75 l 1
 147.492 325.02 182.473 337.5 220.5 337.5 c 0
 313.723 337.5 389.25 261.973 389.25 168.75 c 0
 389.25 75.5713 313.723 0 220.5 0 c 0
 127.277 0 51.75 75.5713 51.75 168.75 c 2
 51.75 472.5 l 1
220.5 270 m 0
 164.602 270 119.25 224.648 119.25 168.75 c 0
 119.25 112.837 164.602 67.5 220.5 67.5 c 0
 276.398 67.5 321.75 112.837 321.75 168.75 c 0
 321.75 224.648 276.398 270 220.5 270 c 0
EndSplineSet
Validated: 1
EndChar

StartChar: seven
Encoding: 55 55 21
Width: 350
Flags: MW
HStem: 0 21G<175 242.5 175 175> 0 21G<175 242.5 175 175> 135 67.5<107.5 175 107.5 175 242.5 310> 270 67.5<40 175 40 242.5>
VStem: 175 67.5<0 135 0 135 202.5 270 270 270>
LayerCount: 2
Fore
SplineSet
40 337.5 m 1xb8
 242.5 337.5 l 1
 242.5 202.5 l 1
 310 202.5 l 1
 310 135 l 1
 242.5 135 l 1
 242.5 0 l 1
 175 0 l 1
 175 135 l 1
 107.5 135 l 1
 107.5 202.5 l 1
 175 202.5 l 1
 175 270 l 1
 40 270 l 1
 40 337.5 l 1xb8
EndSplineSet
Validated: 1
EndChar

StartChar: eight
Encoding: 56 56 22
Width: 443
Flags: MW
HStem: 0 67.5<193.551 249.449 193.551 268.111> 270 67.5<193.551 249.449> 540 67.5<193.551 249.449>
VStem: 52.75 67.5<140.793 196.406 411.116 466.699> 322.75 67.5<140.793 196.406 122.161 196.699 411.116 466.699>
CounterMasks: 1 e0
LayerCount: 2
Fore
SplineSet
221.5 607.5 m 0
 314.723 607.5 390.25 531.973 390.25 438.75 c 0
 390.25 383.481 363.473 334.57 322.398 303.75 c 1
 363.473 272.974 390.25 224.062 390.25 168.75 c 0
 390.25 75.5713 314.723 0 221.5 0 c 0
 128.277 0 52.75 75.5713 52.75 168.75 c 0
 52.75 224.062 79.5273 272.974 120.602 303.75 c 1
 79.5273 334.57 52.75 383.481 52.75 438.75 c 0
 52.75 531.973 128.277 607.5 221.5 607.5 c 0
221.5 540 m 0
 165.602 540 120.25 494.648 120.25 438.75 c 0
 120.25 382.837 165.602 337.5 221.5 337.5 c 0
 277.398 337.5 322.75 382.837 322.75 438.75 c 0
 322.75 494.648 277.398 540 221.5 540 c 0
221.5 270 m 0
 165.602 270 120.25 224.648 120.25 168.75 c 0
 120.25 112.837 165.602 67.5 221.5 67.5 c 0
 277.398 67.5 322.75 112.837 322.75 168.75 c 0
 322.75 224.648 277.398 270 221.5 270 c 0
EndSplineSet
Validated: 1
EndChar

StartChar: nine
Encoding: 57 57 23
Width: 430
Flags: MW
HStem: 0 21G<316.25 383.75 316.25 316.25> 0 21G<316.25 383.75 316.25 316.25> 135 67.5<187.051 234.014> 405 67.5<187.051 242.949>
VStem: 46.25 67.5<275.793 331.699 275.793 350.361> 316.25 67.5<0 169.087 169.087 169.087 275.793 303.75 0 331.699>
LayerCount: 2
Fore
SplineSet
215 472.5 m 0xbc
 308.223 472.5 383.75 396.973 383.75 303.75 c 2
 383.75 0 l 1
 316.25 0 l 1
 316.25 169.087 l 1
 288.008 147.876 253.027 135 215 135 c 0
 121.777 135 46.25 210.571 46.25 303.75 c 0
 46.25 396.973 121.777 472.5 215 472.5 c 0xbc
215 405 m 0
 159.102 405 113.75 359.648 113.75 303.75 c 0
 113.75 247.837 159.102 202.5 215 202.5 c 0
 270.898 202.5 316.25 247.837 316.25 303.75 c 0
 316.25 359.648 270.898 405 215 405 c 0
EndSplineSet
Validated: 1
EndChar

StartChar: colon
Encoding: 58 58 24
Width: 170
Flags: MW
HStem: 0 67.5<51.25 118.75 51.25 118.75> 135 67.5<51.25 118.75 51.25 118.75>
VStem: 51.25 67.5<0 67.5 0 67.5 135 202.5>
LayerCount: 2
Fore
SplineSet
51.25 202.5 m 1
 118.75 202.5 l 1
 118.75 135 l 1
 51.25 135 l 1
 51.25 202.5 l 1
51.25 67.5 m 1
 118.75 67.5 l 1
 118.75 0 l 1
 51.25 0 l 1
 51.25 67.5 l 1
EndSplineSet
Validated: 1
EndChar

StartChar: semicolon
Encoding: 59 59 25
Width: 160
Flags: MW
HStem: -20.6133 20G<46.25 113.75 113.75 113.75> -20.6133 20G<46.25 113.75 113.75 113.75> 68 67.5<46.25 113.75 46.25 113.75>
VStem: 46.25 67.5<-200.477 -0.613281 -200.477 -0.613281 68 135.5>
LayerCount: 2
Fore
SplineSet
46.25 135.5 m 1x30
 113.75 135.5 l 1
 113.75 68 l 1
 46.25 68 l 1
 46.25 135.5 l 1x30
46.25 -0.613281 m 1xb0
 113.75 -0.613281 l 1
 113.75 -200.477 l 1
 46.25 -200.477 l 1
 46.25 -0.613281 l 1xb0
EndSplineSet
Validated: 1
EndChar

StartChar: less
Encoding: 60 60 26
Width: 268
Flags: MW
HStem: 0 67.5<190.426 218.375 190.426 218.375> 270 67.5<190.426 218.375>
VStem: 49.625 67.5<140.793 196.699 140.793 215.361>
LayerCount: 2
Fore
SplineSet
218.375 337.5 m 1
 218.375 270 l 1
 162.477 270 117.125 224.648 117.125 168.75 c 0
 117.125 112.837 162.477 67.5 218.375 67.5 c 1
 218.375 0 l 1
 125.152 0 49.625 75.5713 49.625 168.75 c 0
 49.625 261.973 125.152 337.5 218.375 337.5 c 1
EndSplineSet
Validated: 1
EndChar

StartChar: equal
Encoding: 61 61 27
Width: 372
Flags: MW
HStem: 0 67.5<51 321 51 321> 135 67.5<51 321 51 321>
VStem: 51 270<0 67.5 0 67.5 135 202.5 0 202.5>
LayerCount: 2
Fore
SplineSet
51 67.5 m 1
 321 67.5 l 1
 321 0 l 1
 51 0 l 1
 51 67.5 l 1
51 202.5 m 1
 321 202.5 l 1
 321 135 l 1
 51 135 l 1
 51 202.5 l 1
EndSplineSet
Validated: 1
EndChar

StartChar: greater
Encoding: 62 62 28
Width: 268
Flags: MW
HStem: 0 67.5<49.625 77.5742 49.625 96.2363> 270 67.5<49.625 77.5742>
VStem: 150.875 67.5<140.793 196.699>
LayerCount: 2
Fore
SplineSet
49.625 337.5 m 1
 142.848 337.5 218.375 261.973 218.375 168.75 c 0
 218.375 75.5713 142.848 0 49.625 0 c 1
 49.625 67.5 l 1
 105.523 67.5 150.875 112.837 150.875 168.75 c 0
 150.875 224.648 105.523 270 49.625 270 c 1
 49.625 337.5 l 1
EndSplineSet
Validated: 1
EndChar

StartChar: question
Encoding: 63 63 29
Width: 266
Flags: MW
HStem: 0 67.5<48.625 116.125 48.625 116.125> 135 67.5<48.625 76.5742 48.625 95.2363> 405 67.5<48.625 76.5742>
VStem: 48.625 67.5<0 67.5 0 67.5> 149.875 67.5<275.793 331.721>
LayerCount: 2
Fore
SplineSet
48.625 472.5 m 1
 141.848 472.5 217.375 396.973 217.375 303.75 c 0
 217.375 210.571 141.848 135 48.625 135 c 1
 48.625 202.5 l 1
 104.523 202.5 149.875 247.837 149.875 303.75 c 0
 149.875 359.692 104.523 405 48.625 405 c 1
 48.625 472.5 l 1
48.625 67.5 m 1
 116.125 67.5 l 1
 116.125 0 l 1
 48.625 0 l 1
 48.625 67.5 l 1
EndSplineSet
Validated: 1
EndChar

StartChar: at
Encoding: 64 64 30
Width: 669
Flags: MW
HStem: 0 67.5<171.465 218.46> 270 67.5<171.465 218.46 152.835 227.393> 337.5 67.6201<503.311 638.311 503.311 638.311> 452.62 20G<435.811 503.311 503.311 503.311>
VStem: 30.6895 67.5<140.775 196.703 140.775 215.333> 300.689 67.5<0 34.1104 34.1104 34.1104 140.775 196.703 303.75 337.5 0 337.5> 435.811 67.5<-67.3799 337.5 405.12 472.62>
LayerCount: 2
Fore
SplineSet
199.439 270 m 0xde
 143.49 270 98.1895 224.655 98.1895 168.75 c 0
 98.1895 112.8 143.49 67.5 199.439 67.5 c 0
 255.346 67.5 300.689 112.8 300.689 168.75 c 0
 300.689 224.655 255.346 270 199.439 270 c 0xde
199.439 337.5 m 0
 237.48 337.5 272.461 324.96 300.689 303.75 c 1
 300.689 337.5 l 1
 368.189 337.5 l 1xbe
 368.189 0 l 1
 300.689 0 l 1
 300.689 34.1104 l 1
 272.461 12.8398 237.48 0 199.439 0 c 0
 106.23 0 30.6895 75.5254 30.6895 168.75 c 0
 30.6895 261.915 106.23 337.5 199.439 337.5 c 0
503.311 405.12 m 1
 638.311 405.12 l 1
 638.311 337.5 l 1
 503.311 337.5 l 1
 503.311 -67.3799 l 1
 435.811 -67.3799 l 1
 435.811 472.62 l 1
 503.311 472.62 l 1
 503.311 405.12 l 1
EndSplineSet
Validated: 1
EndChar

StartChar: A
Encoding: 65 65 31
Width: 375
Flags: MW
HStem: 0 67.5<193.301 221.25 193.301 221.25 193.301 322.5 193.301 255> 270 67.5<193.301 221.25>
VStem: 52.5 67.5<140.801 196.699 140.801 215.332> 255 67.5<0 337.5 0 337.5>
LayerCount: 2
Fore
SplineSet
255 337.5 m 5
 322.5 337.5 l 5
 322.5 0 l 5
 255 0 l 5
 255 337.5 l 5
221.25 337.5 m 5
 221.25 270 l 5
 165.352 270 120 224.648 120 168.75 c 4
 120 112.852 165.352 67.5 221.25 67.5 c 5
 221.25 0 l 5
 128.027 0 52.5 75.5859 52.5 168.75 c 4
 52.5 261.914 128.027 337.5 221.25 337.5 c 5
EndSplineSet
Validated: 1
EndChar

StartChar: B
Encoding: 66 66 32
Width: 347
Flags: MW
HStem: 0 67.5<55.375 150.824> 270 67.5<122.875 132.895> 452.5 20G<55.375 122.875 122.875 122.875>
VStem: 55.375 67.5<67.5 138.398 208.125 270 337.5 399.023> 224.125 67.5<140.801 173.701>
LayerCount: 2
Fore
SplineSet
219.965 197.227 m 1
 195.824 167.578 161.781 146.25 122.875 138.398 c 1
 122.875 67.5 l 1
 178.773 67.5 224.125 112.852 224.125 168.75 c 0
 224.125 178.652 222.66 188.203 219.965 197.227 c 1
122.875 270 m 1
 122.875 208.125 l 1
 146.02 216.328 165.297 232.324 177.25 253.477 c 1
 161.547 263.496 142.914 270 122.875 270 c 1
122.875 399.023 m 1
 122.875 337.5 l 1
 146.078 337.5 168.402 332.798 188.5 324.375 c 1
 181.293 359.238 155.863 387.305 122.875 399.023 c 1
55.375 472.5 m 1
 122.875 472.5 l 1
 199.867 456.855 257.875 385.371 257.875 303.75 c 0
 257.875 293.379 256.996 283.242 255.238 273.398 c 1
 278.09 244.57 291.625 208.359 291.625 168.75 c 0
 291.625 75.5273 216.039 0 122.875 0 c 2
 55.375 0 l 1
 55.375 472.5 l 1
EndSplineSet
Validated: 1
EndChar

StartChar: C
Encoding: 67 67 33
Width: 268
Flags: MW
HStem: 0 67.5<190.396 218.375 190.396 218.375> 270 67.5<190.396 218.375>
VStem: 49.625 67.5<140.801 196.729 140.801 215.361>
LayerCount: 2
Fore
SplineSet
218.375 337.5 m 1
 218.375 270 l 1
 162.418 270 117.125 224.707 117.125 168.75 c 0
 117.125 112.852 162.418 67.5 218.375 67.5 c 1
 218.375 0 l 1
 125.152 0 49.625 75.5859 49.625 168.75 c 0
 49.625 261.973 125.152 337.5 218.375 337.5 c 1
EndSplineSet
Validated: 1
EndChar

StartChar: D
Encoding: 68 68 34
Width: 378
Flags: MW
HStem: 0 67.5<54 183.199 155.25 183.199 155.25 201.832> 270 67.5<155.25 183.199>
VStem: 54 67.5<0 337.5 0 337.5> 256.5 67.5<140.801 196.699>
LayerCount: 2
Fore
SplineSet
155.25 337.5 m 1
 248.414 337.5 324 261.973 324 168.75 c 0
 324 75.5859 248.414 0 155.25 0 c 1
 155.25 67.5 l 1
 211.148 67.5 256.5 112.852 256.5 168.75 c 0
 256.5 224.648 211.148 270 155.25 270 c 1
 155.25 337.5 l 1
54 337.5 m 1
 121.5 337.5 l 1
 121.5 0 l 1
 54 0 l 1
 54 337.5 l 1
EndSplineSet
Validated: 1
EndChar

StartChar: E
Encoding: 69 69 35
Width: 369
Flags: MW
HStem: 0 67.5<49.5 77.4492 184.266 319.5 49.5 77.4492> 135 67.5<214.852 252 214.852 252> 270 67.5<49.5 319.5 184.266 319.5 184.266 184.266>
VStem: 150.75 101.25<140.801 196.67>
CounterMasks: 1 e0
LayerCount: 2
Fore
SplineSet
319.5 270 m 5
 184.266 270 l 5
 199.09 250.312 209.812 227.461 214.852 202.5 c 5
 252 202.5 l 5
 252 135 l 5
 214.852 135 l 5
 209.812 109.98 199.031 87.1289 184.266 67.5 c 5
 319.5 67.5 l 5
 319.5 0 l 5
 49.5 0 l 5
 49.5 67.5 l 5
 105.398 67.5 150.75 112.852 150.75 168.75 c 4
 150.75 224.59 105.34 269.941 49.5 270 c 5
 49.5 337.5 l 5
 319.5 337.5 l 5
 319.5 270 l 5
EndSplineSet
Validated: 1
EndChar

StartChar: F
Encoding: 70 70 36
Width: 417
Flags: MW
HStem: 136.5 67.5<107.25 242.25 107.25 242.25> 406.5 67.5<180.521 236.449>
VStem: 39.75 67.5<-66 136.5 204 305.25> 309.75 67.5<305.25 333.199>
LayerCount: 2
Fore
SplineSet
208.5 474 m 0
 301.664 474 377.25 398.414 377.25 305.25 c 1
 309.75 305.25 l 1
 309.75 361.148 264.398 406.5 208.5 406.5 c 0
 152.543 406.5 107.25 361.148 107.25 305.25 c 2
 107.25 204 l 1
 242.25 204 l 1
 242.25 136.5 l 1
 107.25 136.5 l 1
 107.25 -66 l 1
 39.75 -66 l 1
 39.75 305.25 l 2
 39.75 398.414 115.277 474 208.5 474 c 0
EndSplineSet
Validated: 1
EndChar

StartChar: G
Encoding: 71 71 37
Width: 435
Flags: HMW
HStem: -35 67.5<189.551 245.449 189.551 264.111> 133.574 67.5<290.801 318.75 290.801 318.75> 403.574 67.5<290.801 318.75>
VStem: 48.75 67.5<105.596 133.574 105.596 133.574> 150 67.5<274.346 330.273 274.346 348.906> 318.75 67.5<105.596 133.574 201.074 336.074>
LayerCount: 2
Fore
SplineSet
318.75 202.074 m 1
 386.25 202.074 l 1
 386.25 -0.425781 l 2
 386.25 -93.6484 310.723 -169 217.5 -169 c 0
 124.277 -169 48.75 -93.6484 48.75 -0.425781 c 1
 116.25 -0.425781 l 1
 116.25 -56.3828 161.602 -101.5 217.5 -101.5 c 0
 273.398 -101.5 318.75 -56.3828 318.75 -0.425781 c 1
 225.527 -0.425781 150 75.1016 150 168.324 c 0
 150 261.488 225.527 337.074 318.75 337.074 c 1
 318.75 269.574 l 1
 262.852 269.574 217.5 224.223 217.5 168.324 c 0
 217.5 112.367 262.852 67.0742 318.75 67.0742 c 1
 318.75 202.074 l 1
EndSplineSet
Validated: 524289
EndChar

StartChar: H
Encoding: 72 72 38
Width: 428
Flags: MW
HStem: 0 21G<45.25 112.75 45.25 45.25 315.25 382.75 315.25 315.25> 0 21G<45.25 112.75 45.25 45.25 315.25 382.75 315.25 315.25> 101.426 67.3242<194.986 241.949> 317.5 20G<45.25 112.75 112.75 112.75> 317.5 20G<45.25 112.75 112.75 112.75>
VStem: 45.25 67.5<0 27.9492 135 337.5> 315.25 67.5<0 27.9492>
LayerCount: 2
Fore
SplineSet
45.25 337.5 m 1xb6
 112.75 337.5 l 1
 112.75 135 l 1
 140.992 156.211 175.973 168.75 214 168.75 c 0
 307.223 168.75 382.75 93.2227 382.75 0 c 1
 315.25 0 l 1
 315.25 55.8984 269.898 101.426 214 101.426 c 0
 158.102 101.426 112.75 55.8984 112.75 0 c 1
 45.25 0 l 1
 45.25 337.5 l 1xb6
EndSplineSet
Validated: 1
EndChar

StartChar: I
Encoding: 73 73 39
Width: 181
Flags: MW
HStem: 0 21G<56.75 124.25 56.75 56.75> 0 21G<56.75 124.25 56.75 56.75> 317.5 20G<56.75 124.25 124.25 124.25> 317.5 20G<56.75 124.25 124.25 124.25>
VStem: 56.75 67.5<0 337.5 0 337.5>
LayerCount: 2
Fore
SplineSet
56.75 337.5 m 1xa8
 124.25 337.5 l 1
 124.25 0 l 1
 56.75 0 l 1
 56.75 337.5 l 1xa8
EndSplineSet
Validated: 1
EndChar

StartChar: J
Encoding: 74 74 40
Width: 437
Flags: MW
HStem: 0 67.5<190.551 246.449 190.551 265.111> 317.5 20G<319.75 387.25 387.25 387.25> 317.5 20G<319.75 387.25 387.25 387.25>
VStem: 49.75 67.5<140.801 168.75 140.801 168.75> 319.75 67.5<168.75 337.5>
LayerCount: 2
Fore
SplineSet
319.75 337.5 m 1xd8
 387.25 337.5 l 1
 387.25 168.75 l 2
 387.25 75.5273 311.723 0 218.5 0 c 0
 125.277 0 49.75 75.5273 49.75 168.75 c 1
 117.25 168.75 l 1
 117.25 112.852 162.602 67.5 218.5 67.5 c 0
 274.398 67.5 319.75 112.852 319.75 168.75 c 2
 319.75 337.5 l 1xd8
EndSplineSet
Validated: 1
EndChar

StartChar: K
Encoding: 75 75 41
Width: 434
Flags: MW
HStem: 0 21G<48.25 115.75 48.25 48.25 318.25 385.75 318.25 318.25> 0 21G<48.25 115.75 48.25 48.25 318.25 385.75 318.25 318.25> 101.426 67.3242<197.986 222.771 197.986 244.949> 317.5 20G<48.25 115.75 115.75 115.75> 317.5 20G<48.25 115.75 115.75 115.75>
VStem: 48.25 67.5<0 27.9492 135 337.5> 250.75 67.5<165.352 270> 318.25 67.5<0 27.5977 0 27.9492>
LayerCount: 2
Fore
SplineSet
48.25 337.5 m 1xb7
 115.75 337.5 l 1
 115.75 135 l 1
 143.992 156.211 178.973 168.75 217 168.75 c 0
 228.543 168.75 239.852 167.578 250.75 165.352 c 1
 250.75 270 l 1
 318.25 270 l 1
 318.25 135 l 1
 359.207 104.238 385.75 55.1953 385.75 0 c 1
 318.25 0 l 1
 318.25 55.8984 272.898 101.426 217 101.426 c 0
 161.102 101.426 115.75 55.8984 115.75 0 c 1
 48.25 0 l 1
 48.25 337.5 l 1xb7
EndSplineSet
Validated: 1
EndChar

StartChar: L
Encoding: 76 76 42
Width: 183
Flags: MW
HStem: 0 21G<57.75 125.25 57.75 57.75> 0 21G<57.75 125.25 57.75 57.75>
VStem: 57.75 67.5<0 540 0 540>
LayerCount: 2
Fore
SplineSet
57.75 540 m 1xa0
 125.25 540 l 1
 125.25 0 l 1
 57.75 0 l 1
 57.75 540 l 1xa0
EndSplineSet
Validated: 1
EndChar

StartChar: M
Encoding: 77 77 43
Width: 480
Flags: MW
HStem: 0 67.5<256.875 284.824 256.875 303.486> 270 67.5<121.875 189.375 121.875 121.875 256.875 284.824>
VStem: 54.375 67.5<0 270 0 337.5> 189.375 67.5<135 270> 358.125 67.5<140.801 196.699>
LayerCount: 2
Fore
SplineSet
54.375 337.5 m 1
 256.875 337.5 l 2
 350.098 337.5 425.625 261.973 425.625 168.75 c 0
 425.625 75.5859 350.098 0 256.875 0 c 1
 256.875 67.5 l 1
 312.773 67.5 358.125 112.852 358.125 168.75 c 0
 358.125 224.648 312.773 270 256.875 270 c 1
 256.875 135 l 1
 189.375 135 l 1
 189.375 270 l 1
 121.875 270 l 1
 121.875 0 l 1
 54.375 0 l 1
 54.375 337.5 l 1
EndSplineSet
Validated: 1
EndChar

StartChar: N
Encoding: 78 78 44
Width: 412
Flags: MW
HStem: 0 67.5<189.125 217.074 189.125 235.736> 270 67.5<121.625 189.125 121.625 121.625>
VStem: 54.125 67.5<0 270 0 337.5> 290.375 67.5<140.801 196.699>
LayerCount: 2
Fore
SplineSet
54.125 337.5 m 1
 189.125 337.5 l 2
 282.348 337.5 357.875 261.973 357.875 168.75 c 0
 357.875 75.5859 282.348 0 189.125 0 c 1
 189.125 67.5 l 1
 245.023 67.5 290.375 112.852 290.375 168.75 c 0
 290.375 224.648 245.023 270 189.125 270 c 2
 121.625 270 l 1
 121.625 0 l 1
 54.125 0 l 1
 54.125 337.5 l 1
EndSplineSet
Validated: 1
EndChar

StartChar: O
Encoding: 79 79 45
Width: 438
Flags: MW
HStem: 0 67.5<191.051 246.949 191.051 265.611> 270 67.5<191.051 246.949>
VStem: 50.25 67.5<140.801 196.699 140.801 215.332> 320.25 67.5<140.801 196.699>
LayerCount: 2
Fore
SplineSet
219 270 m 0
 163.102 270 117.75 224.648 117.75 168.75 c 0
 117.75 112.852 163.102 67.5 219 67.5 c 0
 274.898 67.5 320.25 112.852 320.25 168.75 c 0
 320.25 224.648 274.898 270 219 270 c 0
219 337.5 m 0
 312.223 337.5 387.75 261.914 387.75 168.75 c 0
 387.75 75.5273 312.223 0 219 0 c 0
 125.777 0 50.25 75.5273 50.25 168.75 c 0
 50.25 261.914 125.777 337.5 219 337.5 c 0
EndSplineSet
Validated: 1
EndChar

StartChar: P
Encoding: 80 80 46
Width: 372
Flags: MW
HStem: 0 67.5<118.5 152.25 118.5 152.25> 270 67.5<152.25 180.199>
VStem: 51 67.5<-202.5 0 67.5 202.5> 253.5 67.5<140.801 196.699>
LayerCount: 2
Fore
SplineSet
152.25 337.5 m 1
 245.473 337.5 321 261.973 321 168.75 c 0
 321 75.5859 245.473 0 152.25 0 c 2
 118.5 0 l 1
 118.5 -202.5 l 1
 51 -202.5 l 1
 51 202.5 l 1
 118.5 202.5 l 1
 118.5 67.5 l 1
 152.25 67.5 l 2
 208.148 67.5 253.5 112.852 253.5 168.75 c 0
 253.5 224.648 208.148 270 152.25 270 c 1
 152.25 337.5 l 1
EndSplineSet
Validated: 1
EndChar

StartChar: Q
Encoding: 81 81 47
Width: 372
Flags: MW
HStem: 0 67.5<173.139 253.5 219.75 253.5> 270 67.5<191.801 219.75>
VStem: 51 67.5<140.771 196.699 140.771 215.332> 253.5 67.5<-202.5 0 0 0 67.5 202.5 -202.5 202.5>
LayerCount: 2
Fore
SplineSet
253.5 202.5 m 1
 321 202.5 l 1
 321 -202.5 l 1
 253.5 -202.5 l 1
 253.5 0 l 1
 219.75 0 l 2
 126.527 0 51 75.5273 51 168.75 c 0
 51 261.914 126.527 337.5 219.75 337.5 c 1
 219.75 270 l 1
 163.852 270 118.5 224.648 118.5 168.75 c 0
 118.5 112.793 163.852 67.5 219.75 67.5 c 2
 253.5 67.5 l 1
 253.5 202.5 l 1
EndSplineSet
Validated: 1
EndChar

StartChar: R
Encoding: 82 82 48
Width: 428
Flags: MW
HStem: 0 21G<45.25 112.75 45.25 45.25> 0 21G<45.25 112.75 45.25 45.25> 270 67.5<186.051 241.949>
VStem: 45.25 67.5<0 168.75 0 215.361> 315.25 67.5<168.75 196.699>
LayerCount: 2
Fore
SplineSet
214 337.5 m 0xb8
 307.223 337.5 382.75 261.973 382.75 168.75 c 1
 315.25 168.75 l 1
 315.25 224.648 269.898 270 214 270 c 0
 158.102 270 112.75 224.648 112.75 168.75 c 2
 112.75 0 l 1
 45.25 0 l 1
 45.25 168.75 l 2
 45.25 261.973 120.777 337.5 214 337.5 c 0xb8
EndSplineSet
Validated: 1
EndChar

StartChar: S
Encoding: 83 83 49
Width: 427
Flags: MW
HStem: -135 67.5<213.5 241.449 213.5 260.111> 0 67.5<185.551 213.5 185.551 213.5> 135 67.5<213.5 241.449> 270 67.5<185.551 213.5>
VStem: 44.75 67.5<140.801 196.699 140.801 215.332> 314.75 67.5<5.97656 61.875>
LayerCount: 2
Fore
SplineSet
213.5 202.5 m 1
 306.723 202.5 382.25 127.148 382.25 33.9258 c 0
 382.25 -59.2969 306.723 -135 213.5 -135 c 1
 213.5 -67.5 l 1
 269.398 -67.5 314.75 -21.9727 314.75 33.9258 c 0
 314.75 89.8242 269.398 135 213.5 135 c 1
 213.5 202.5 l 1
213.5 337.5 m 1
 213.5 270 l 1
 157.602 270 112.25 224.648 112.25 168.75 c 0
 112.25 112.852 157.602 67.5 213.5 67.5 c 1
 213.5 0 l 1
 120.277 0 44.75 75.5273 44.75 168.75 c 0
 44.75 261.914 120.277 337.5 213.5 337.5 c 1
EndSplineSet
Validated: 1
EndChar

StartChar: T
Encoding: 84 84 50
Width: 351
Flags: MW
HStem: 0 67.5<215.051 243 215.051 243> 270 67.5<40.5 108.234 40.5 310.5 215.051 243 243 310.5>
VStem: 74.25 67.5<140.801 187.793>
LayerCount: 2
Fore
SplineSet
310.5 337.5 m 5
 310.5 270 l 5
 243 270 l 6
 187.102 270 141.75 224.707 141.75 168.75 c 4
 141.75 112.852 187.102 67.5 243 67.5 c 5
 243 0 l 5
 149.777 0 74.25 75.5859 74.25 168.75 c 4
 74.25 206.836 87.0234 241.758 108.234 270 c 5
 40.5 270 l 5
 40.5 337.5 l 5
 310.5 337.5 l 5
EndSplineSet
Validated: 1
EndChar

StartChar: U
Encoding: 85 85 51
Width: 448
Flags: MW
HStem: 0 67.5<196.227 251.773 196.227 270.406> 317.5 20G<55.25 122.75 122.75 122.75 325.25 392.75 392.75 392.75> 317.5 20G<55.25 122.75 122.75 122.75 325.25 392.75 392.75 392.75>
VStem: 55.25 67.5<167.637 168.75 168.75 337.5> 325.25 67.5<167.637 168.75 168.75 337.5>
LayerCount: 2
Fore
SplineSet
55.25 337.5 m 1xd8
 122.75 337.5 l 1
 122.75 168.75 l 1
 122.75 167.637 l 2
 123.395 112.266 168.453 67.5 224 67.5 c 0
 279.547 67.5 324.605 112.266 325.25 167.637 c 2
 325.25 168.75 l 1
 325.25 337.5 l 1
 392.75 337.5 l 1
 392.75 168.75 l 1
 392.75 167.637 l 2
 392.164 74.9414 316.812 0 224 0 c 0
 131.188 0 55.8359 74.9414 55.25 167.637 c 2
 55.25 337.5 l 1xd8
EndSplineSet
Validated: 1
EndChar

StartChar: V
Encoding: 86 86 52
Width: 412
Flags: MW
HStem: 0 67.5<121.625 189.125 121.625 189.125> 270 67.5<189.125 217.074>
VStem: 54.125 67.5<67.5 337.5 67.5 337.5 67.5 337.5> 290.375 67.5<140.801 196.699>
LayerCount: 2
Fore
SplineSet
54.125 337.5 m 1
 121.625 337.5 l 1
 121.625 67.5 l 1
 189.125 67.5 l 2
 245.023 67.5 290.375 112.852 290.375 168.75 c 0
 290.375 224.648 245.023 270 189.125 270 c 1
 189.125 337.5 l 1
 282.348 337.5 357.875 261.973 357.875 168.75 c 0
 357.875 75.5859 282.348 0 189.125 0 c 2
 54.125 0 l 1
 54.125 337.5 l 1
EndSplineSet
Validated: 1
EndChar

StartChar: W
Encoding: 87 87 53
Width: 480
Flags: MW
HStem: 0 67.5<121.875 189.375 121.875 256.875> 270 67.5<256.875 284.824>
VStem: 54.375 67.5<67.5 337.5 67.5 337.5 67.5 337.5> 189.375 67.5<67.5 202.5> 358.125 67.5<140.801 196.699>
LayerCount: 2
Fore
SplineSet
54.375 337.5 m 1
 121.875 337.5 l 1
 121.875 67.5 l 1
 189.375 67.5 l 1
 189.375 202.5 l 1
 256.875 202.5 l 1
 256.875 67.5 l 1
 312.773 67.5 358.125 112.852 358.125 168.75 c 0
 358.125 224.648 312.773 270 256.875 270 c 1
 256.875 337.5 l 1
 350.098 337.5 425.625 261.973 425.625 168.75 c 0
 425.625 75.5859 350.098 0 256.875 0 c 2
 54.375 0 l 1
 54.375 337.5 l 1
EndSplineSet
Validated: 1
EndChar

StartChar: X
Encoding: 88 88 54
Width: 368
Flags: MW
HStem: 0 67.5<49 76.6562 291.344 319> 270 67.5<49 76.6562 49 76.9492 291.344 319>
VStem: 150.25 67.5<140.801 196.699>
LayerCount: 2
Fore
SplineSet
49 337.5 m 1
 104.312 337.5 153.238 311.074 184 270 c 1
 214.82 311.074 263.688 337.5 319 337.5 c 1
 319 270 l 1
 263.102 270 217.75 224.648 217.75 168.75 c 0
 217.75 112.852 263.102 67.5 319 67.5 c 1
 319 0 l 1
 263.688 0 214.762 26.4258 184 67.5 c 1
 153.18 26.4258 104.312 0 49 0 c 1
 49 67.5 l 1
 104.898 67.5 150.25 112.852 150.25 168.75 c 0
 150.25 224.648 104.898 270 49 270 c 1
 49 337.5 l 1
EndSplineSet
Validated: 1
EndChar

StartChar: Y
Encoding: 89 89 55
Width: 428
Flags: MW
HStem: 318.102 20G<180.25 247.75 247.75 247.75> 318.102 20G<180.25 247.75 247.75 247.75>
VStem: 45.25 67.5<147.313 169.352 147.313 169.352> 180.25 67.5<-201.898 4 -201.898 4 74.0781 338.102> 315.25 67.5<147.313 169.352>
CounterMasks: 1 38
LayerCount: 2
Fore
SplineSet
180.25 338.102 m 1xb8
 247.75 338.102 l 1
 247.75 74.0781 l 1
 287.066 88.0234 315.25 125.274 315.25 169.352 c 1
 382.75 169.352 l 1
 382.75 87.7305 324.801 19.6445 247.75 4 c 1
 247.75 -201.898 l 1
 180.25 -201.898 l 1
 180.25 4 l 1
 103.199 19.6445 45.25 87.7305 45.25 169.352 c 1
 112.75 169.352 l 1
 112.75 125.274 140.934 88.0234 180.25 74.0781 c 1
 180.25 338.102 l 1xb8
EndSplineSet
Validated: 1
EndChar

StartChar: Z
Encoding: 90 90 56
Width: 448
Flags: HMW
HStem: 0 67.5<196.051 251.949 196.051 270.611> 168.926 67.5<55.25 190.25 122.75 190.25 55.25 257.75 122.75 122.75 325.25 392.75> 236.426 67.3242<55.25 122.75 55.25 190.25 257.75 325.25 257.75 257.75> 405 67.5<196.051 251.949>
VStem: 55.25 67.5<140.947 236.426 303.75 331.699> 325.25 67.5<140.947 168.926>
LayerCount: 2
Fore
SplineSet
257.75 102.426 m 5xdc
 257.75 34.9258 l 5
 122.75 34.9258 l 5
 122.75 -21.0312 168.102 -66.5 224 -66.5 c 4
 279.898 -66.5 325.25 -21.0312 325.25 34.9258 c 5
 392.75 34.9258 l 5
 392.75 -58.2969 317.223 -134 224 -134 c 4
 130.777 -134 55.25 -58.2969 55.25 34.9258 c 6
 55.25 102.426 l 5
 190.25 102.426 l 5xdc
 190.25 169.75 l 5
 325.25 169.75 l 5
 325.25 225.648 279.898 271 224 271 c 4
 168.102 271 122.75 225.648 122.75 169.75 c 5
 55.25 169.75 l 5
 55.25 262.914 130.777 338.5 224 338.5 c 4
 317.223 338.5 392.75 262.914 392.75 169.75 c 6xbc
 392.75 102.426 l 5
 257.75 102.426 l 5xdc
EndSplineSet
Validated: 524289
EndChar

StartChar: bracketleft
Encoding: 91 91 57
Width: 302
Flags: MW
HStem: 0 67.5<117.25 252.25 117.25 252.25> 405 67.5<117.25 252.25 117.25 117.25>
VStem: 49.75 67.5<67.5 405 67.5 472.5> 49.75 202.5<0 67.5 405 472.5>
LayerCount: 2
Fore
SplineSet
49.75 472.5 m 1xd0
 252.25 472.5 l 1
 252.25 405 l 1xd0
 117.25 405 l 1
 117.25 67.5 l 1xe0
 252.25 67.5 l 1
 252.25 0 l 1
 49.75 0 l 1
 49.75 472.5 l 1xd0
EndSplineSet
Validated: 1
EndChar

StartChar: backslash
Encoding: 92 92 58
Width: 393
Flags: MW
HStem: 0 21G<317.505 317.505> 0 21G<317.505 317.505> 319.9 20G<75.4502 75.4502>
LayerCount: 2
Fore
SplineSet
27.75 292.141 m 1xa0
 75.4502 339.9 l 1
 365.25 47.7002 l 1
 317.505 0 l 1
 27.75 292.141 l 1xa0
EndSplineSet
Validated: 1
EndChar

StartChar: bracketright
Encoding: 93 93 59
Width: 297
Flags: MW
HStem: 0 67.5<47.25 182.25 47.25 249.75 47.25 182.25> 405 67.5<47.25 182.25 47.25 249.75>
VStem: 47.25 202.5<0 67.5 67.5 67.5 405 472.5 0 472.5> 182.25 67.5<67.5 405 405 405>
LayerCount: 2
Fore
SplineSet
47.25 472.5 m 1xe0
 249.75 472.5 l 1
 249.75 0 l 1
 47.25 0 l 1
 47.25 67.5 l 1xe0
 182.25 67.5 l 1
 182.25 405 l 1xd0
 47.25 405 l 1
 47.25 472.5 l 1xe0
EndSplineSet
Validated: 1
EndChar

StartChar: a
Encoding: 97 97 61
Width: 443
Flags: MW
HStem: 0 67.5<193.551 240.514> 270 67.5<193.551 240.514 174.889 249.449>
VStem: 52.75 67.5<140.793 196.692 140.793 215.361> 322.75 67.5<0 34.1455 34.1455 34.1455 140.793 196.692 303.75 337.5 0 337.5>
LayerCount: 2
Fore
SplineSet
221.5 337.5 m 4
 259.527 337.5 294.508 325.02 322.75 303.75 c 5
 322.75 337.5 l 5
 390.25 337.5 l 5
 390.25 0 l 5
 322.75 0 l 5
 322.75 34.1455 l 5
 294.508 12.876 259.527 0 221.5 0 c 4
 128.277 0 52.75 75.5859 52.75 168.75 c 4
 52.75 261.973 128.277 337.5 221.5 337.5 c 4
221.5 270 m 4
 165.602 270 120.25 224.634 120.25 168.75 c 4
 120.25 112.837 165.602 67.5 221.5 67.5 c 4
 277.398 67.5 322.75 112.837 322.75 168.75 c 4
 322.75 224.634 277.398 270 221.5 270 c 4
221.5 270 m 4
EndSplineSet
Validated: 1
EndChar

StartChar: b
Encoding: 98 98 62
Width: 441
Flags: MW
HStem: 0 67.5<192.551 248.449 192.551 267.111> 270 67.5<201.486 248.449> 452.5 20G<51.75 119.25 119.25 119.25>
VStem: 51.75 67.5<168.75 196.692 303.75 472.5> 321.75 67.5<140.793 196.692>
LayerCount: 2
Fore
SplineSet
51.75 472.5 m 1
 119.25 472.5 l 1
 119.25 303.75 l 1
 147.492 325.02 182.473 337.5 220.5 337.5 c 0
 313.723 337.5 389.25 261.973 389.25 168.75 c 0
 389.25 75.5859 313.723 0 220.5 0 c 0
 127.277 0 51.75 75.5859 51.75 168.75 c 2
 51.75 472.5 l 1
220.5 270 m 0
 164.602 270 119.25 224.634 119.25 168.75 c 0
 119.25 112.837 164.602 67.5 220.5 67.5 c 0
 276.398 67.5 321.75 112.837 321.75 168.75 c 0
 321.75 224.634 276.398 270 220.5 270 c 0
220.5 270 m 0
EndSplineSet
Validated: 1
EndChar

StartChar: c
Encoding: 99 99 63
Width: 375
Flags: MW
HStem: 0 67.5<120 322.5 120 322.5> 270 67.5<120 322.5 120 120>
VStem: 52.5 67.5<67.5 270 67.5 337.5>
LayerCount: 2
Fore
SplineSet
52.5 337.5 m 1
 322.5 337.5 l 1
 322.5 270 l 1
 120 270 l 1
 120 67.5 l 1
 322.5 67.5 l 1
 322.5 0 l 1
 52.5 0 l 1
 52.5 337.5 l 1
52.5 337.5 m 0
EndSplineSet
Validated: 1
EndChar

StartChar: d
Encoding: 100 100 64
Width: 436
Flags: MW
HStem: 0 67.5<190.051 245.949 190.051 264.582> 270 67.5<190.051 237.014 171.389 245.949> 452.5 20G<319.25 386.75 386.75 386.75>
VStem: 49.25 67.5<140.793 196.721 140.793 215.361> 319.25 67.5<140.793 168.75 168.75 196.721 303.75 472.5>
LayerCount: 2
Fore
SplineSet
319.25 472.5 m 1
 386.75 472.5 l 1
 386.75 168.75 l 2
 386.75 75.5859 311.164 0 218 0 c 0
 124.777 0 49.25 75.5859 49.25 168.75 c 0
 49.25 261.973 124.777 337.5 218 337.5 c 0
 256.027 337.5 291.008 325.02 319.25 303.75 c 1
 319.25 472.5 l 1
218 270 m 0
 162.102 270 116.75 224.692 116.75 168.75 c 0
 116.75 112.837 162.102 67.5 218 67.5 c 0
 273.898 67.5 319.25 112.837 319.25 168.75 c 0
 319.25 224.692 273.898 270 218 270 c 0
218 270 m 0
EndSplineSet
Validated: 1
EndChar

StartChar: e
Encoding: 101 101 65
Width: 378
Flags: MW
HStem: 0 67.5<121.5 324 121.5 324> 135 67.5<121.5 256.5 121.5 256.5> 270 67.5<121.5 324 121.5 121.5>
VStem: 54 67.5<67.5 135 202.5 270>
CounterMasks: 1 e0
LayerCount: 2
Fore
SplineSet
54 337.5 m 5
 324 337.5 l 5
 324 270 l 5
 121.5 270 l 5
 121.5 202.5 l 5
 256.5 202.5 l 5
 256.5 135 l 5
 121.5 135 l 5
 121.5 67.5 l 5
 324 67.5 l 5
 324 0 l 5
 54 0 l 5
 54 337.5 l 5
54 337.5 m 4
EndSplineSet
Validated: 1
EndChar

StartChar: f
Encoding: 102 102 66
Width: 362
Flags: MW
HStem: 135 67.5<46 248.5 46 248.5> 270 67.5<46 316 46 316>
VStem: 46 67.5<-270 67.5 -270 67.5>
LayerCount: 2
Fore
SplineSet
46 135 m 1
 46 202.5 l 1
 248.5 202.5 l 1
 248.5 135 l 1
 46 135 l 1
46 -270 m 1
 46 67.5 l 1
 113.5 67.5 l 1
 113.5 -270 l 1
 46 -270 l 1
46 270 m 1
 46 337.5 l 1
 316 337.5 l 1
 316 270 l 1
 46 270 l 1
46 270 m 0
EndSplineSet
Validated: 1
EndChar

StartChar: g
Encoding: 103 103 67
Width: 441
Flags: MW
HStem: 0 67.5<191.994 247.893 191.994 266.555> 270 67.5<191.994 247.893>
VStem: 51.1934 67.5<140.793 196.721 140.793 215.361> 321.193 67.5<140.793 196.721>
LayerCount: 2
Fore
SplineSet
219.943 337.5 m 0
 313.166 337.5 388.693 261.973 388.693 168.75 c 0
 388.693 75.5859 313.166 0 219.943 0 c 0
 126.721 0 51.1934 75.5859 51.1934 168.75 c 0
 51.1934 261.973 126.721 337.5 219.943 337.5 c 0
219.943 270 m 0
 164.045 270 118.693 224.692 118.693 168.75 c 0
 118.693 112.837 164.045 67.5 219.943 67.5 c 0
 275.842 67.5 321.193 112.837 321.193 168.75 c 0
 321.193 224.692 275.842 270 219.943 270 c 0
342.17 35.2588 m 1
 389.807 -12.7295 l 1
 198.967 -203.613 l 1
 151.33 -155.625 l 1
 342.17 35.2588 l 1
341.057 -98.6133 m 1
 388.693 -146.25 l 1
 265.295 -270 l 1
 217.717 -221.953 l 1
 341.057 -98.6133 l 1
341.057 -98.6133 m 0
EndSplineSet
Validated: 1
EndChar

StartChar: h
Encoding: 104 104 68
Width: 386
Flags: MW
HStem: 0 21G<58 125.5 58 58 260.5 328 260.5 260.5> 0 21G<58 125.5 58 58 260.5 328 260.5 260.5> 270 67.5<125.5 260.5 125.5 260.5> 452.5 20G<58 125.5 125.5 125.5 260.5 328 328 328>
VStem: 58 67.5<0 270 337.5 472.5> 260.5 67.5<0 270 270 270 337.5 472.5 0 472.5>
LayerCount: 2
Fore
SplineSet
58 472.5 m 1xbc
 125.5 472.5 l 1
 125.5 337.5 l 1
 260.5 337.5 l 1
 260.5 472.5 l 1
 328 472.5 l 1
 328 0 l 1
 260.5 0 l 1
 260.5 270 l 1
 125.5 270 l 1
 125.5 0 l 1
 58 0 l 1
 58 472.5 l 1xbc
58 472.5 m 0
EndSplineSet
Validated: 1
EndChar

StartChar: i
Encoding: 105 105 69
Width: 183
Flags: MW
HStem: 0 21G<57.75 57.75 57.75 125.25> 0 21G<57.75 57.75 57.75 125.25> 317.5 20G<57.75 125.25 125.25 125.25> 317.5 20G<57.75 125.25 125.25 125.25> 405 67.5<57.75 125.25 57.75 125.25>
VStem: 57.75 67.5<0 337.5 0 337.5 405 472.5>
LayerCount: 2
Fore
SplineSet
57.75 405 m 1x0c
 57.75 472.5 l 1
 125.25 472.5 l 1
 125.25 405 l 1
 57.75 405 l 1x0c
57.75 0 m 1xac
 57.75 337.5 l 1
 125.25 337.5 l 1
 125.25 0 l 1
 57.75 0 l 1xac
57.75 0 m 0
EndSplineSet
Validated: 1
EndChar

StartChar: j
Encoding: 106 106 70
Width: 188
Flags: MW
HStem: -271 67.5<26.5 94 26.5 161.5 26.5 94> 316.5 20G<94 161.5 161.5 161.5> 316.5 20G<94 161.5 161.5 161.5> 404 67.5<94 161.5 94 161.5>
VStem: 26.5 135<-271 -203.5 -203.5 -203.5> 94 67.5<-203.5 336.5 -271 336.5 404 471.5>
LayerCount: 2
Fore
SplineSet
94 471.5 m 1x94
 161.5 471.5 l 1
 161.5 404 l 1
 94 404 l 1
 94 471.5 l 1x94
94 336.5 m 1xd4
 161.5 336.5 l 1xd4
 161.5 -271 l 1
 26.5 -271 l 1
 26.5 -203.5 l 1xd8
 94 -203.5 l 1
 94 336.5 l 1xd4
94 336.5 m 0
EndSplineSet
Validated: 1
EndChar

StartChar: k
Encoding: 107 107 71
Width: 339
Flags: MW
HStem: 0 135<50.1738 165.428 50.1738 165.428 165.428 185.174 185.174 252.674> 452.5 20G<50.1738 117.674 117.674 117.674>
VStem: 50.1738 67.5<0 472.5 0 472.5> 185.174 67.5<0 135 0 135>
LayerCount: 2
Fore
SplineSet
241.072 306.152 m 1
 288.826 258.384 l 1
 165.428 135 l 1
 117.674 182.681 l 1
 241.072 306.152 l 1
185.174 0 m 1
 185.174 135 l 1
 252.674 135 l 1
 252.674 0 l 1
 185.174 0 l 1
50.1738 0 m 1
 50.1738 472.5 l 1
 117.674 472.5 l 1
 117.674 0 l 1
 50.1738 0 l 1
50.1738 0 m 0
EndSplineSet
Validated: 5
EndChar

StartChar: l
Encoding: 108 108 72
Width: 183
Flags: MW
HStem: 0 21G<57.75 125.25 57.75 57.75> 0 21G<57.75 125.25 57.75 57.75> 452.5 20G<57.75 125.25 125.25 125.25>
VStem: 57.75 67.5<0 472.5 0 472.5>
LayerCount: 2
Fore
SplineSet
57.75 472.5 m 1xb0
 125.25 472.5 l 1
 125.25 0 l 1
 57.75 0 l 1
 57.75 472.5 l 1xb0
EndSplineSet
Validated: 1
EndChar

StartChar: m
Encoding: 109 109 73
Width: 453
Flags: MW
HStem: 0 21G<56.5488 124.049 56.5488 56.5488 328.951 396.451 328.951 328.951> 0 21G<56.5488 124.049 56.5488 56.5488 328.951 396.451 328.951 328.951> 135 67.5<191.549 259.049 191.549 259.049> 270 67.5<124.049 328.951 124.049 124.049>
VStem: 56.5488 67.5<0 270 0 337.5> 191.549 67.5<135 202.5 135 202.5> 328.951 67.5<0 270 270 270>
LayerCount: 2
Fore
SplineSet
191.549 135 m 1x3e
 191.549 202.5 l 1
 259.049 202.5 l 1
 259.049 135 l 1
 191.549 135 l 1x3e
56.5488 337.5 m 1
 396.451 337.5 l 1
 396.451 0 l 1
 328.951 0 l 1
 328.951 270 l 1
 124.049 270 l 1
 124.049 0 l 1
 56.5488 0 l 1xbe
 56.5488 337.5 l 1
56.5488 337.5 m 0
EndSplineSet
Validated: 1
EndChar

StartChar: n
Encoding: 110 110 74
Width: 383
Flags: MW
HStem: 0 21G<56.5 124 56.5 56.5 259 326.5 259 259> 0 21G<56.5 124 56.5 56.5 259 326.5 259 259> 270 67.5<124 259 124 124>
VStem: 56.5 67.5<0 270 0 337.5> 259 67.5<0 270 270 270>
LayerCount: 2
Fore
SplineSet
56.5 337.5 m 1xb8
 326.5 337.5 l 1
 326.5 0 l 1
 259 0 l 1
 259 270 l 1
 124 270 l 1
 124 0 l 1
 56.5 0 l 1
 56.5 337.5 l 1xb8
56.5 337.5 m 0
EndSplineSet
Validated: 1
EndChar

StartChar: o
Encoding: 111 111 75
Width: 438
Flags: MW
HStem: 0 67.5<191.051 246.949 191.051 265.611> 270 67.5<191.051 246.949>
VStem: 50.25 67.5<140.793 196.692 140.793 215.361> 320.25 67.5<140.793 196.692>
LayerCount: 2
Fore
SplineSet
219 337.5 m 4
 312.223 337.5 387.75 261.973 387.75 168.75 c 4
 387.75 75.5859 312.223 0 219 0 c 4
 125.777 0 50.25 75.5859 50.25 168.75 c 4
 50.25 261.973 125.777 337.5 219 337.5 c 4
219 270 m 4
 163.102 270 117.75 224.634 117.75 168.75 c 4
 117.75 112.837 163.102 67.5 219 67.5 c 4
 274.898 67.5 320.25 112.837 320.25 168.75 c 4
 320.25 224.634 274.898 270 219 270 c 4
219 270 m 4
EndSplineSet
Validated: 1
EndChar

StartChar: p
Encoding: 112 112 76
Width: 443
Flags: MW
HStem: 0 67.5<202.486 249.449 193.551 268.111> 270 67.5<193.551 249.449>
VStem: 52.75 67.5<-270 34.1455 140.793 168.75 168.75 196.692> 322.75 67.5<140.793 196.692>
LayerCount: 2
Fore
SplineSet
221.5 337.5 m 0
 314.723 337.5 390.25 261.973 390.25 168.75 c 0
 390.25 75.5859 314.723 0 221.5 0 c 0
 183.473 0 148.492 12.876 120.25 34.1455 c 1
 120.25 -270 l 1
 52.75 -270 l 1
 52.75 168.75 l 2
 52.75 261.973 128.277 337.5 221.5 337.5 c 0
221.5 270 m 0
 165.602 270 120.25 224.634 120.25 168.75 c 0
 120.25 112.837 165.602 67.5 221.5 67.5 c 0
 277.398 67.5 322.75 112.837 322.75 168.75 c 0
 322.75 224.634 277.398 270 221.5 270 c 0
221.5 270 m 0
EndSplineSet
Validated: 1
EndChar

StartChar: q
Encoding: 113 113 77
Width: 442
Flags: MW
HStem: 0 67.5<193.051 240.014> 270 67.5<193.051 248.949>
VStem: 52.25 67.5<140.793 196.721 140.793 215.361> 322.25 67.5<-270 34.1455 34.1455 34.1455 140.793 168.75 -270 196.721>
LayerCount: 2
Fore
SplineSet
221 337.5 m 0
 314.223 337.5 389.75 261.973 389.75 168.75 c 2
 389.75 -270 l 1
 322.25 -270 l 1
 322.25 34.1455 l 1
 294.008 12.876 259.027 0 221 0 c 0
 127.777 0 52.25 75.5859 52.25 168.75 c 0
 52.25 261.973 127.777 337.5 221 337.5 c 0
221 270 m 0
 165.102 270 119.75 224.692 119.75 168.75 c 0
 119.75 112.837 165.102 67.5 221 67.5 c 0
 276.898 67.5 322.25 112.837 322.25 168.75 c 0
 322.25 224.692 276.898 270 221 270 c 0
221 270 m 0
EndSplineSet
Validated: 1
EndChar

StartChar: r
Encoding: 114 114 78
Width: 290
Flags: MW
HStem: 0 21G<43.75 111.25 43.75 43.75> 0 21G<43.75 111.25 43.75 43.75> 270 67.5<111.25 246.25 111.25 111.25>
VStem: 43.75 67.5<0 270 0 337.5>
LayerCount: 2
Fore
SplineSet
43.75 337.5 m 1xb0
 246.25 337.5 l 1
 246.25 270 l 1
 111.25 270 l 1
 111.25 0 l 1
 43.75 0 l 1
 43.75 337.5 l 1xb0
43.75 337.5 m 0
EndSplineSet
Validated: 1
EndChar

StartChar: s
Encoding: 115 115 79
Width: 385
Flags: MW
HStem: 0 67.5<57.5 260 57.5 327.5 57.5 260> 270 67.5<125 327.5 125 125>
VStem: 57.5 67.5<135 270 135 337.5> 260 67.5<67.5 202.5 0 202.5>
LayerCount: 2
Fore
SplineSet
260 67.5 m 1
 260 202.5 l 1
 327.5 202.5 l 1
 327.5 0 l 1
 57.5 0 l 1
 57.5 67.5 l 1
 260 67.5 l 1
57.5 337.5 m 1
 327.5 337.5 l 1
 327.5 270 l 1
 125 270 l 1
 125 135 l 1
 57.5 135 l 1
 57.5 337.5 l 1
57.5 337.5 m 0
EndSplineSet
Validated: 1
EndChar

StartChar: t
Encoding: 116 116 80
Width: 257
Flags: MW
HStem: 0 21G<27.25 94.75 27.25 27.25> 0 21G<27.25 94.75 27.25 27.25> 405 67.5<94.75 229.75 94.75 229.75>
VStem: 27.25 67.5<0 405 472.5 540>
LayerCount: 2
Fore
SplineSet
94.75 472.5 m 1xb0
 229.75 472.5 l 1
 229.75 405 l 1
 94.75 405 l 1
 94.75 0 l 1
 27.25 0 l 1
 27.25 540 l 1
 94.75 540 l 1
 94.75 472.5 l 1xb0
94.75 472.5 m 0
EndSplineSet
Validated: 1
EndChar

StartChar: u
Encoding: 117 117 81
Width: 383
Flags: MW
HStem: 0 67.5<124 259 124 326.5> 317.5 20G<56.5 124 124 124 259 326.5 326.5 326.5> 317.5 20G<56.5 124 124 124 259 326.5 326.5 326.5>
VStem: 56.5 67.5<67.5 337.5 67.5 337.5 67.5 337.5> 259 67.5<67.5 337.5 0 337.5>
LayerCount: 2
Fore
SplineSet
259 337.5 m 1xd8
 326.5 337.5 l 1
 326.5 0 l 1
 56.5 0 l 1
 56.5 337.5 l 1
 124 337.5 l 1
 124 67.5 l 1
 259 67.5 l 1
 259 337.5 l 1xd8
259 337.5 m 0
EndSplineSet
Validated: 1
EndChar

StartChar: v
Encoding: 118 118 82
Width: 384
Flags: MW
HStem: 0 67.5<124.5 327 124.5 327> 317.5 20G<57 124.5 124.5 124.5 259.5 327 327 327> 317.5 20G<57 124.5 124.5 124.5 259.5 327 327 327>
VStem: 57 67.5<67.5 337.5 67.5 337.5 67.5 337.5> 259.5 67.5<135 337.5>
LayerCount: 2
Fore
SplineSet
259.5 135 m 1xd8
 259.5 337.5 l 1
 327 337.5 l 1
 327 135 l 1
 259.5 135 l 1xd8
124.5 337.5 m 1
 124.5 67.5 l 1
 327 67.5 l 1
 327 0 l 1
 57 0 l 1
 57 337.5 l 1
 124.5 337.5 l 1
124.5 337.5 m 0
EndSplineSet
Validated: 1
EndChar

StartChar: w
Encoding: 119 119 83
Width: 447
Flags: MW
HStem: 0 67.5<122.25 189.75 257.25 324.75> 317.5 20G<54.75 122.25 122.25 122.25 324.75 392.25 392.25 392.25> 317.5 20G<54.75 122.25 122.25 122.25 324.75 392.25 392.25 392.25>
VStem: 54.75 67.5<67.5 337.5 67.5 337.5 67.5 337.5> 189.75 67.5<67.5 202.5 67.5 202.5> 324.75 67.5<135 337.5 135 337.5>
CounterMasks: 1 1c
LayerCount: 2
Fore
SplineSet
257.25 202.5 m 1xdc
 257.25 67.5 l 1
 324.75 67.5 l 1
 324.75 0 l 1
 54.75 0 l 1
 54.75 337.5 l 1
 122.25 337.5 l 1
 122.25 67.5 l 1
 189.75 67.5 l 1
 189.75 202.5 l 1
 257.25 202.5 l 1xdc
324.75 135 m 1
 324.75 337.5 l 1
 392.25 337.5 l 1
 392.25 135 l 1
 324.75 135 l 1
324.75 135 m 0
EndSplineSet
Validated: 1
EndChar

StartChar: x
Encoding: 120 120 84
Width: 474
Flags: MW
HStem: 0 21G<237 304.5 237 237> 0 21G<237 304.5 237 237> 135 67.5<304.5 439.5 304.5 304.5> 202.5 67.5<34.5 169.5 34.5 237 34.5 169.5> 385 20G<169.5 237 237 237>
VStem: 169.5 67.5<270 405> 237 67.5<0 135 0 202.5>
LayerCount: 2
Fore
SplineSet
237 202.5 m 1xbe
 439.5 202.5 l 1
 439.5 135 l 1
 304.5 135 l 1
 304.5 0 l 1
 237 0 l 1
 237 202.5 l 1xbe
169.5 405 m 1
 237 405 l 1
 237 202.5 l 1
 34.5 202.5 l 1
 34.5 270 l 1
 169.5 270 l 1
 169.5 405 l 1
169.5 405 m 0
EndSplineSet
Validated: 5
EndChar

StartChar: y
Encoding: 121 121 85
Width: 383
Flags: MW
HStem: 0 67.5<124.967 258.033 124.967 258.033> 317.5 20G<57.4668 124.967 124.967 124.967> 317.5 20G<57.4668 124.967 124.967 124.967>
VStem: 57.4668 67.5<67.5 337.5 67.5 337.5 67.5 337.5> 258.033 67.5<-270 0 0 0 67.5 270 -270 270>
LayerCount: 2
Fore
SplineSet
258.033 270 m 1xd8
 325.533 270 l 1
 325.533 -270 l 1
 258.033 -270 l 1
 258.033 0 l 1
 57.4668 0 l 1
 57.4668 337.5 l 1
 124.967 337.5 l 1
 124.967 67.5 l 1
 258.033 67.5 l 1
 258.033 270 l 1xd8
258.033 270 m 0
EndSplineSet
Validated: 1
EndChar

StartChar: z
Encoding: 122 122 86
Width: 384
Flags: MW
HStem: 0 67.5<124.764 326.912 124.764 326.912> 0 135<57.0879 124.764 192.264 259.764 57.0879 124.764> 135 67.5<192.264 259.764 192.264 259.764> 202.5 135<192.264 259.764 259.764 327.088 259.764 259.764 259.764 259.764> 270 67.5<56.9121 259.764 56.9121 327.088>
VStem: 57.0879 67.6758<67.5 135 67.5 135 67.5 135> 192.264 67.5<135 202.5 135 202.5> 259.764 67.3242<135 337.5 202.5 270 270 270>
LayerCount: 2
Fore
SplineSet
56.9121 337.5 m 1x2f
 327.088 337.5 l 1x27
 327.088 202.5 l 1
 259.764 202.5 l 1
 259.764 270 l 1
 56.9121 270 l 1
 56.9121 337.5 l 1x2f
259.764 202.5 m 1
 259.764 135 l 1
 192.264 135 l 1
 192.264 202.5 l 1
 259.764 202.5 l 1
57.0879 135 m 1x67
 124.764 135 l 1x67
 124.764 67.5 l 1
 326.912 67.5 l 1
 326.912 0 l 1xa7
 57.0879 0 l 1
 57.0879 135 l 1x67
57.0879 135 m 0
EndSplineSet
Validated: 5
EndChar

StartChar: braceleft
Encoding: 123 123 87
Width: 338
Flags: MW
HStem: 0 67.5<173.014 287.125 219.625 287.125> 135 67.5<204.654 219.625 204.654 219.625> 270 67.5<204.654 219.625> 405 67.5<191.676 287.125 219.625 287.125>
VStem: 50.875 67.5<140.793 168.75 140.793 180.762 303.75 331.721>
LayerCount: 2
Fore
SplineSet
219.625 472.5 m 2
 287.125 472.5 l 1
 287.125 405 l 1
 219.625 405 l 2
 163.727 405 118.375 359.692 118.375 303.75 c 1
 146.617 325.02 181.598 337.5 219.625 337.5 c 1
 219.625 270 l 1
 189.684 270 162.789 256.934 144.273 236.25 c 1
 162.789 215.625 189.684 202.5 219.625 202.5 c 1
 219.625 135 l 1
 181.598 135 146.617 147.48 118.375 168.75 c 1
 118.375 112.837 163.727 67.5 219.625 67.5 c 2
 287.125 67.5 l 1
 287.125 0 l 1
 219.625 0 l 2
 126.402 0 50.875 75.5713 50.875 168.75 c 0
 50.875 192.773 56.0898 215.625 65.1133 236.25 c 1
 56.0898 256.934 50.875 279.712 50.875 303.75 c 0
 50.875 396.973 126.402 472.5 219.625 472.5 c 2
EndSplineSet
Validated: 1
EndChar

StartChar: bar
Encoding: 124 124 88
Width: 183
Flags: MW
HStem: 0 21G<57.75 125.25 57.75 57.75> 0 21G<57.75 125.25 57.75 57.75> 453 20G<57.75 125.25 125.25 125.25>
VStem: 57.75 67.5<0 473 0 473>
LayerCount: 2
Fore
SplineSet
57.75 473 m 1xb0
 125.25 473 l 1
 125.25 0 l 1
 57.75 0 l 1
 57.75 473 l 1xb0
EndSplineSet
Validated: 1
EndChar

StartChar: braceright
Encoding: 125 125 89
Width: 335
Flags: MW
HStem: 0 67.5<49.375 116.875 49.375 116.875> 135 67.5<116.875 131.846 116.875 135.889> 270 67.5<116.875 131.846> 405 67.5<49.375 116.875 49.375 116.875>
VStem: 218.125 67.5<140.793 168.75 303.75 331.721>
LayerCount: 2
Fore
SplineSet
49.375 472.5 m 1
 116.875 472.5 l 2
 210.098 472.5 285.625 396.973 285.625 303.75 c 0
 285.625 279.712 280.41 256.934 271.387 236.25 c 1
 280.41 215.552 285.625 192.773 285.625 168.75 c 0
 285.625 75.5713 210.098 0 116.875 0 c 2
 49.375 0 l 1
 49.375 67.5 l 1
 116.875 67.5 l 2
 172.773 67.5 218.125 112.837 218.125 168.75 c 1
 189.883 147.48 154.902 135 116.875 135 c 1
 116.875 202.5 l 1
 146.816 202.5 173.711 215.625 192.227 236.25 c 1
 173.711 256.934 146.816 270 116.875 270 c 1
 116.875 337.5 l 1
 154.902 337.5 189.883 325.02 218.125 303.75 c 1
 218.125 359.692 172.773 405 116.875 405 c 2
 49.375 405 l 1
 49.375 472.5 l 1
EndSplineSet
Validated: 1
EndChar

StartChar: sterling
Encoding: 163 163 90
Width: 427
Flags: MW
HStem: 0 67.5<112.25 327.523 112.25 327.523> 337.5 21G<44.75 44.75 112.25 112.25 314.75 382.25 314.75 314.75> 337.5 21G<44.75 44.75 112.25 112.25 314.75 382.25 314.75 314.75> 438.75 67.5<185.551 241.449>
VStem: 44.75 67.5<67.5 337.5 67.5 337.5 67.5 384.111> 314.75 67.5<337.5 365.449>
LayerCount: 2
Fore
SplineSet
213.5 506.25 m 0xbc
 306.723 506.25 382.25 430.723 382.25 337.5 c 1
 314.75 337.5 l 1xdc
 314.75 393.398 269.398 438.75 213.5 438.75 c 0
 157.602 438.75 112.25 393.398 112.25 337.5 c 2
 112.25 67.5 l 1
 327.523 67.5 l 1
 327.523 0 l 1
 44.75 0 l 1
 44.75 337.5 l 2
 44.75 430.723 120.277 506.25 213.5 506.25 c 0xbc
EndSplineSet
Validated: 1
EndChar

StartChar: section
Encoding: 167 167 91
Width: 529
Flags: MW
HStem: 0 67.5<260.193 282.225 260.193 301.004> 135 67.5<260.193 355.467 260.193 355.467 425.545 496.443> 270 67.5<32.5566 94.8418 32.5566 94.8418 164.92 260.193> 405 67.5<238.162 260.193>
LayerCount: 2
Fore
SplineSet
164.92 270 m 1
 178.807 230.874 216.248 202.632 260.193 202.5 c 2
 355.467 202.5 l 1
 341.639 241.655 304.08 269.824 260.193 270 c 2
 164.92 270 l 1
260.193 472.5 m 1
 260.193 405 l 1
 216.131 405 178.865 376.816 164.92 337.5 c 1
 260.193 337.5 l 1
 293.943 334.175 l 1
 360.037 320.757 412.186 268.594 425.545 202.5 c 1
 496.443 202.5 l 1
 496.443 135 l 1
 425.545 135 l 1
 409.9 57.9639 341.814 0 260.193 0 c 1
 260.193 67.5 l 1
 304.256 67.5 341.58 95.6836 355.467 135 c 1
 260.193 135 l 1
 235.057 136.875 l 1
 164.979 147.422 108.729 201.152 94.8418 270 c 1
 32.5566 270 l 1
 32.5566 337.5 l 1
 94.8418 337.5 l 1
 110.486 414.565 178.572 472.5 260.193 472.5 c 1
EndSplineSet
Validated: 1
EndChar

StartChar: copyright
Encoding: 169 169 92
Width: 331
Flags: MW
HStem: 0 67.5<30.5 98 30.5 98 131.75 199.25 30.5 131.75 233 300.5>
VStem: 30.5 67.5<0 67.5 0 67.5> 131.75 67.5<0 67.5 0 67.5> 233 67.5<0 67.5 0 67.5>
CounterMasks: 1 70
LayerCount: 2
Fore
SplineSet
233 67.5 m 1
 300.5 67.5 l 1
 300.5 0 l 1
 233 0 l 1
 233 67.5 l 1
131.75 67.5 m 1
 199.25 67.5 l 1
 199.25 0 l 1
 131.75 0 l 1
 131.75 67.5 l 1
30.5 67.5 m 1
 98 67.5 l 1
 98 0 l 1
 30.5 0 l 1
 30.5 67.5 l 1
EndSplineSet
Validated: 1
EndChar

StartChar: guillemotleft
Encoding: 171 171 93
Width: 406
Flags: MW
HStem: 68 67.5<191.926 219.875 191.926 219.875 327.248 354.875> 338 67.5<191.926 219.875 327.248 354.875>
VStem: 51.125 67.5<208.793 264.721 208.793 283.361> 186.125 67.5<217.766 255.698>
LayerCount: 2
Fore
SplineSet
219.875 338 m 0
 250.637 379.06 299.621 405.5 354.875 405.5 c 1
 354.875 338 l 1
 298.977 338 253.625 292.692 253.625 236.75 c 0
 253.625 180.837 298.977 135.5 354.875 135.5 c 1
 354.875 68 l 1
 299.621 68 250.644 94.4893 219.875 135.5 c 0
 198.728 163.688 186.125 198.781 186.125 236.75 c 0
 186.125 274.646 198.781 309.802 219.875 338 c 0
219.875 405.5 m 1
 219.875 338 l 1
 163.977 338 118.625 292.692 118.625 236.75 c 0
 118.625 180.837 163.977 135.5 219.875 135.5 c 1
 219.875 68 l 1
 126.652 68 51.125 143.571 51.125 236.75 c 0
 51.125 329.973 126.652 405.5 219.875 405.5 c 1
EndSplineSet
Validated: 5
EndChar

StartChar: paragraph
Encoding: 182 182 94
Width: 466
Flags: MW
HStem: 0 21G<249.875 317.375 249.875 249.875 351.125 418.625 351.125 351.125> 0 21G<249.875 317.375 249.875 249.875 351.125 418.625 351.125 351.125> 135 67.5<188.176 216.125 188.176 216.125> 405 67.5<188.176 216.125>
VStem: 47.375 67.5<275.793 331.721 275.793 350.361> 249.875 67.5<0 472.5 0 472.5> 351.125 67.5<0 472.5 0 472.5>
LayerCount: 2
Fore
SplineSet
351.125 472.5 m 1xbe
 418.625 472.5 l 1
 418.625 0 l 1
 351.125 0 l 1
 351.125 472.5 l 1xbe
249.875 472.5 m 1
 317.375 472.5 l 1
 317.375 0 l 1
 249.875 0 l 1
 249.875 472.5 l 1
216.125 472.5 m 1
 216.125 405 l 1
 160.227 405 114.875 359.692 114.875 303.75 c 0
 114.875 247.837 160.227 202.5 216.125 202.5 c 1
 216.125 135 l 1
 122.902 135 47.375 210.571 47.375 303.75 c 0
 47.375 396.973 122.902 472.5 216.125 472.5 c 1
EndSplineSet
Validated: 1
EndChar

StartChar: guillemotright
Encoding: 187 187 95
Width: 408
Flags: MW
HStem: 68 67.5<52.125 79.752 187.125 215.074> 338 67.5<52.125 79.752 52.125 80.0742 187.125 215.074>
VStem: 153.375 67.5<217.766 255.698 217.766 264.721> 288.375 67.5<208.793 264.721>
LayerCount: 2
Fore
SplineSet
187.125 338 m 1
 187.125 405.5 l 1
 280.348 405.5 355.875 329.973 355.875 236.75 c 0
 355.875 143.571 280.348 68 187.125 68 c 1
 187.125 135.5 l 1
 243.023 135.5 288.375 180.837 288.375 236.75 c 0
 288.375 292.692 243.023 338 187.125 338 c 1
52.125 405.5 m 1
 107.379 405.5 156.363 379.06 187.125 338 c 0
 208.219 309.802 220.875 274.646 220.875 236.75 c 0
 220.875 198.781 208.272 163.688 187.125 135.5 c 0
 156.356 94.4893 107.379 68 52.125 68 c 1
 52.125 135.5 l 1
 108.023 135.5 153.375 180.837 153.375 236.75 c 0
 153.375 292.692 108.023 338 52.125 338 c 1
 52.125 405.5 l 1
EndSplineSet
Validated: 5
EndChar

StartChar: agrave
Encoding: 224 224 96
Width: 443
Flags: W
HStem: 0 67.5<159.306 283.843> 270 67.5<159.306 283.843> 405.75 67.5<357.5 392.5>
VStem: 52.75 67.5<106.565 230.941> 322.75 67.5<0 34.1455 106.242 231.246 303.75 337.5>
LayerCount: 2
Fore
SplineSet
55 473.25 m 5
 392.5 473.25 l 5
 392.5 405.75 l 5
 55 473.25 l 5
221.5 337.5 m 0
 259.527 337.5 294.508 325.02 322.75 303.75 c 1
 322.75 337.5 l 1
 390.25 337.5 l 1
 390.25 0 l 1
 322.75 0 l 1
 322.75 34.1455 l 1
 294.508 12.876 259.527 0 221.5 0 c 0
 128.277 0 52.75 75.5859 52.75 168.75 c 0
 52.75 261.973 128.277 337.5 221.5 337.5 c 0
221.5 270 m 0
 165.602 270 120.25 224.634 120.25 168.75 c 0
 120.25 112.837 165.602 67.5 221.5 67.5 c 0
 277.398 67.5 322.75 112.837 322.75 168.75 c 0
 322.75 224.634 277.398 270 221.5 270 c 0
221.5 270 m 0
EndSplineSet
Validated: 524289
EndChar

StartChar: aacute
Encoding: 225 225 97
Width: 443
Flags: W
HStem: 0 67.5<159.306 283.843> 270 67.5<159.306 283.843> 405.75 67.5<55 86.5176>
VStem: 52.75 67.5<106.565 230.941> 322.75 67.5<0 34.1455 106.242 231.246 303.75 337.5>
LayerCount: 2
Fore
SplineSet
55 405.75 m 4
 56 406 392.5 473.25 392.5 473.25 c 5
 55 473.25 l 5
 55 405.75 l 4
221.5 337.5 m 0
 259.527 337.5 294.508 325.02 322.75 303.75 c 1
 322.75 337.5 l 1
 390.25 337.5 l 1
 390.25 0 l 1
 322.75 0 l 1
 322.75 34.1455 l 1
 294.508 12.876 259.527 0 221.5 0 c 0
 128.277 0 52.75 75.5859 52.75 168.75 c 0
 52.75 261.973 128.277 337.5 221.5 337.5 c 0
221.5 270 m 0
 165.602 270 120.25 224.634 120.25 168.75 c 0
 120.25 112.837 165.602 67.5 221.5 67.5 c 0
 277.398 67.5 322.75 112.837 322.75 168.75 c 0
 322.75 224.634 277.398 270 221.5 270 c 0
221.5 270 m 0
EndSplineSet
Validated: 524289
EndChar

StartChar: acircumflex
Encoding: 226 226 98
Width: 443
Flags: W
HStem: 0 67.5<159.306 283.843> 270 67.5<159.306 283.843> 405.75 67.5<55 392.5>
VStem: 52.75 67.5<106.565 230.941> 322.75 67.5<0 34.1455 106.242 231.246 303.75 337.5>
LayerCount: 2
Fore
SplineSet
392.5 405.75 m 1
 55 405.75 l 1
 55 473.25 l 1
 392.5 473.25 l 1
 392.5 405.75 l 1
221.5 337.5 m 0
 259.527 337.5 294.508 325.02 322.75 303.75 c 1
 322.75 337.5 l 1
 390.25 337.5 l 1
 390.25 0 l 1
 322.75 0 l 1
 322.75 34.1455 l 1
 294.508 12.876 259.527 0 221.5 0 c 0
 128.277 0 52.75 75.5859 52.75 168.75 c 0
 52.75 261.973 128.277 337.5 221.5 337.5 c 0
221.5 270 m 0
 165.602 270 120.25 224.634 120.25 168.75 c 0
 120.25 112.837 165.602 67.5 221.5 67.5 c 0
 277.398 67.5 322.75 112.837 322.75 168.75 c 0
 322.75 224.634 277.398 270 221.5 270 c 0
221.5 270 m 0
EndSplineSet
Validated: 524289
EndChar

StartChar: atilde
Encoding: 227 227 99
Width: 443
Flags: W
HStem: 0 67.5<159.306 283.843> 270 67.5<159.306 283.843> 405.75 67.5<55 392.5>
VStem: 52.75 67.5<106.565 230.941> 322.75 67.5<0 34.1455 106.242 231.246 303.75 337.5>
LayerCount: 2
Fore
SplineSet
392.5 405.75 m 5
 55 405.75 l 5
 55 473.25 l 5
 392.5 473.25 l 5
 392.5 405.75 l 5
221.5 337.5 m 0
 259.527 337.5 294.508 325.02 322.75 303.75 c 1
 322.75 337.5 l 1
 390.25 337.5 l 1
 390.25 0 l 1
 322.75 0 l 1
 322.75 34.1455 l 1
 294.508 12.876 259.527 0 221.5 0 c 0
 128.277 0 52.75 75.5859 52.75 168.75 c 0
 52.75 261.973 128.277 337.5 221.5 337.5 c 0
221.5 270 m 0
 165.602 270 120.25 224.634 120.25 168.75 c 0
 120.25 112.837 165.602 67.5 221.5 67.5 c 0
 277.398 67.5 322.75 112.837 322.75 168.75 c 0
 322.75 224.634 277.398 270 221.5 270 c 0
221.5 270 m 0
EndSplineSet
Validated: 524289
EndChar

StartChar: adieresis
Encoding: 228 228 100
Width: 443
Flags: W
HStem: 0 67.5<159.306 283.843> 270 67.5<159.306 283.843> 405.75 67.5<117 188.5 254 325.5>
VStem: 52.75 67.5<106.565 230.941> 117 71.5<405.75 473.25> 254 71.5<405.75 473.25> 322.75 67.5<0 34.1455 106.242 231.246 303.75 337.5>
LayerCount: 2
Fore
SplineSet
325.5 405.75 m 5xe4
 254 405.75 l 5
 254 473.25 l 5
 325.5 473.25 l 5
 325.5 405.75 l 5xe4
188.5 405.75 m 5xe8
 117 405.75 l 5
 117 473.25 l 5
 188.5 473.25 l 5
 188.5 405.75 l 5xe8
221.5 337.5 m 0
 259.527 337.5 294.508 325.02 322.75 303.75 c 1
 322.75 337.5 l 1
 390.25 337.5 l 1
 390.25 0 l 1
 322.75 0 l 1
 322.75 34.1455 l 1
 294.508 12.876 259.527 0 221.5 0 c 0
 128.277 0 52.75 75.5859 52.75 168.75 c 0xf2
 52.75 261.973 128.277 337.5 221.5 337.5 c 0
221.5 270 m 0
 165.602 270 120.25 224.634 120.25 168.75 c 0
 120.25 112.837 165.602 67.5 221.5 67.5 c 0
 277.398 67.5 322.75 112.837 322.75 168.75 c 0
 322.75 224.634 277.398 270 221.5 270 c 0
221.5 270 m 0
EndSplineSet
Validated: 524289
EndChar

StartChar: ae
Encoding: 230 230 101
Width: 646
Flags: W
HStem: 0 67.5<159.306 283.843 390.5 593> 135 67.5<390.5 525.5> 270 67.5<159.306 283.843 390.5 593>
VStem: 52.75 67.5<106.565 230.941> 322.75 67.75<34.1455 135 202.5 303.75>
CounterMasks: 1 e0
LayerCount: 2
Fore
SplineSet
323 337.5 m 5
 593 337.5 l 5
 593 270 l 5
 390.5 270 l 5
 390.5 202.5 l 5
 525.5 202.5 l 5
 525.5 135 l 5
 390.5 135 l 5
 390.5 67.5 l 5
 593 67.5 l 5
 593 0 l 5
 323 0 l 5
 323 337.5 l 5
323 337.5 m 4
390.5 270 m 5
593 0 m 5
221.5 337.5 m 4
 259.527 337.5 294.508 325.02 322.75 303.75 c 5
 322.75 337.5 l 5
 390.25 337.5 l 5
 390.25 0 l 5
 322.75 0 l 5
 322.75 34.1455 l 5
 294.508 12.876 259.527 0 221.5 0 c 4
 128.277 0 52.75 75.5859 52.75 168.75 c 4
 52.75 261.973 128.277 337.5 221.5 337.5 c 4
221.5 270 m 4
 165.602 270 120.25 224.634 120.25 168.75 c 4
 120.25 112.837 165.602 67.5 221.5 67.5 c 4
 277.398 67.5 322.75 112.837 322.75 168.75 c 4
 322.75 224.634 277.398 270 221.5 270 c 4
221.5 270 m 4
EndSplineSet
Validated: 524293
EndChar

StartChar: oe
Encoding: 339 339 102
Width: 646
Flags: W
HStem: 0 67.5<159.306 283.843 390.5 593> 135 67.5<390.5 525.5> 270 67.5<159.306 283.843 390.5 593>
VStem: 52.75 67.5<106.565 230.941> 322.75 67.5<0 34.1455 106.242 231.246 303.75 337.5> 390.25 202.75<0 67.5 270 337.5> 390.25 135.25<135 202.5>
CounterMasks: 1 e0
LayerCount: 2
Fore
SplineSet
390.25 337.5 m 1xf8
 593 337.5 l 1
 593 270 l 1xf4
 390.5 270 l 1
 390.5 202.5 l 1
 525.5 202.5 l 1
 525.5 135 l 1xf2
 390.5 135 l 1
 390.5 67.5 l 1
 593 67.5 l 1
 593 0 l 1xf4
 390.25 0 l 1
 390.25 337.5 l 1xf8
323 337.5 m 0
390.5 270 m 1
593 0 m 1
221.5 337.5 m 0
 259.527 337.5 294.508 325.02 322.75 303.75 c 1
 322.75 337.5 l 1
 390.25 337.5 l 1
 390.25 0 l 1
 322.75 0 l 1
 322.75 34.1455 l 1xf8
 294.508 12.876 259.527 0 221.5 0 c 0
 128.277 0 52.75 75.5859 52.75 168.75 c 0
 52.75 261.973 128.277 337.5 221.5 337.5 c 0
221.5 270 m 0
 165.602 270 120.25 224.634 120.25 168.75 c 0
 120.25 112.837 165.602 67.5 221.5 67.5 c 0
 277.398 67.5 322.75 112.837 322.75 168.75 c 0
 322.75 224.634 277.398 270 221.5 270 c 0
221.5 270 m 0
EndSplineSet
Validated: 524293
EndChar

StartChar: AE
Encoding: 198 198 103
Width: 577
Flags: W
HStem: 0 67.5<159.364 221.25 254.5 310.398 389.266 524.5> 135 67.5<413.901 457> 270 67.5<159.363 221.25 254.5 310.34 389.266 524.499>
VStem: 52.5 67.5<106.888 230.612> 255 67.5<67.501 270> 355.75 101.25<136.284 201.187>
CounterMasks: 1 e0
LayerCount: 2
Fore
SplineSet
524.5 270 m 1
 389.266 270 l 1
 404.09 250.313 414.811 227.461 419.852 202.5 c 1
 457 202.5 l 1
 457 135 l 1
 419.853 135 l 1
 414.812 109.98 404.031 87.1289 389.266 67.5 c 1
 524.5 67.499 l 1
 524.5 -0 l 1
 254.5 0 l 1
 254.5 67.501 l 1
 310.398 67.5 355.75 112.853 355.75 168.75 c 0
 355.751 224.59 310.34 269.941 254.5 270 c 1
 254.5 337.5 l 1
 524.499 337.5 l 1
 524.5 270 l 1
255 337.5 m 1
 322.5 337.5 l 1
 322.5 -0.000976562 l 1
 255 0 l 1
 255 337.5 l 1
221.25 337.5 m 1
 221.25 270 l 1
 165.352 270 119.999 224.648 120 168.75 c 0
 120.001 112.852 165.352 67.5 221.25 67.5 c 1
 221.251 -0 l 1
 128.027 -0 52.5 75.5859 52.5 168.75 c 0
 52.5 261.914 128.027 337.5 221.25 337.5 c 1
EndSplineSet
Validated: 524325
EndChar

StartChar: OE
Encoding: 338 338 104
Width: 579
Flags: W
HStem: 0 67.5<159.363 221.25 254.5 317.002 389.266 524.5> 135 67.5<413.902 457> 270 67.5<159.363 221.25 254.5 316.977 389.266 524.5>
VStem: 52.5 67.5<106.568 230.932> 355.75 101.25<136.284 201.188>
CounterMasks: 1 e0
LayerCount: 2
Fore
SplineSet
524.5 270 m 1
 389.266 270 l 1
 404.09 250.312 414.812 227.461 419.852 202.5 c 1
 457 202.5 l 1
 457 135 l 1
 419.852 135 l 1
 414.812 109.98 404.031 87.1289 389.266 67.5 c 1
 524.5 67.5 l 1
 524.5 0 l 1
 254.5 0 l 1
 254.5 67.5 l 1
 310.398 67.5 355.75 112.852 355.75 168.75 c 0
 355.75 224.59 310.34 269.941 254.5 270 c 1
 254.5 337.5 l 1
 524.5 337.5 l 1
 524.5 270 l 1
221.25 337.5 m 1
 221.25 270 l 1
 165.352 270 120 224.648 120 168.75 c 0
 120 112.852 165.352 67.5 221.25 67.5 c 1
 221.25 0 l 1
 128.027 0 52.5 75.5859 52.5 168.75 c 0
 52.5 261.914 128.027 337.5 221.25 337.5 c 1
EndSplineSet
Validated: 524289
EndChar

StartChar: Agrave
Encoding: 192 192 105
Width: 375
Flags: W
HStem: 0 67.5<159.363 221.25> 270 67.5<159.363 221.25> 405.75 67.5<296.552 324.5>
VStem: 52.5 67.5<106.568 230.932> 255 67.5<0 337.5>
LayerCount: 2
Fore
SplineSet
55 473.25 m 5
 324.5 473.25 l 5
 324.5 405.75 l 5
 55 473.25 l 5
255 337.5 m 5
 322.5 337.5 l 5
 322.5 0 l 5
 255 0 l 5
 255 337.5 l 5
221.25 337.5 m 5
 221.25 270 l 5
 165.352 270 120 224.648 120 168.75 c 4
 120 112.852 165.352 67.5 221.25 67.5 c 5
 221.25 0 l 5
 128.027 0 52.5 75.5859 52.5 168.75 c 4
 52.5 261.914 128.027 337.5 221.25 337.5 c 5
EndSplineSet
Validated: 524289
EndChar

StartChar: Aacute
Encoding: 193 193 106
Width: 375
Flags: W
HStem: 0 67.5<159.363 221.25> 270 67.5<159.363 221.25> 406.75 67.5<53.5 81.4482>
VStem: 52.5 67.5<106.568 230.932> 255 67.5<0 337.5>
LayerCount: 2
Fore
SplineSet
323 406.75 m 5
 53.5 406.75 l 5
 53.5 474.25 l 5
 323 406.75 l 5
255 337.5 m 5
 322.5 337.5 l 5
 322.5 0 l 5
 255 0 l 5
 255 337.5 l 5
221.25 337.5 m 5
 221.25 270 l 5
 165.352 270 120 224.648 120 168.75 c 4
 120 112.852 165.352 67.5 221.25 67.5 c 5
 221.25 0 l 5
 128.027 0 52.5 75.5859 52.5 168.75 c 4
 52.5 261.914 128.027 337.5 221.25 337.5 c 5
EndSplineSet
Validated: 524289
EndChar

StartChar: Acircumflex
Encoding: 194 194 107
Width: 375
Flags: W
HStem: 0 67.5<159.363 221.25> 270 67.5<159.363 221.25> 405.75 67.5<55 322.5>
VStem: 52.5 67.5<106.568 230.932> 255 67.5<0 337.5>
LayerCount: 2
Fore
SplineSet
322.5 405.75 m 5
 55 405.75 l 5
 55 473.25 l 5
 322.5 473.25 l 5
 322.5 405.75 l 5
255 337.5 m 5
 322.5 337.5 l 5
 322.5 0 l 5
 255 0 l 5
 255 337.5 l 5
221.25 337.5 m 5
 221.25 270 l 5
 165.352 270 120 224.648 120 168.75 c 4
 120 112.852 165.352 67.5 221.25 67.5 c 5
 221.25 0 l 5
 128.027 0 52.5 75.5859 52.5 168.75 c 4
 52.5 261.914 128.027 337.5 221.25 337.5 c 5
EndSplineSet
Validated: 524289
EndChar

StartChar: Atilde
Encoding: 195 195 108
Width: 375
Flags: W
HStem: 0 67.5<159.363 221.25> 270 67.5<159.363 221.25> 405.75 67.5<55 322.5>
VStem: 52.5 67.5<106.568 230.932> 255 67.5<0 337.5>
LayerCount: 2
Fore
SplineSet
322.5 405.75 m 1
 55 405.75 l 1
 55 473.25 l 1
 322.5 473.25 l 1
 322.5 405.75 l 1
255 337.5 m 1
 322.5 337.5 l 1
 322.5 0 l 1
 255 0 l 1
 255 337.5 l 1
221.25 337.5 m 1
 221.25 270 l 1
 165.352 270 120 224.648 120 168.75 c 0
 120 112.852 165.352 67.5 221.25 67.5 c 1
 221.25 0 l 1
 128.027 0 52.5 75.5859 52.5 168.75 c 0
 52.5 261.914 128.027 337.5 221.25 337.5 c 1
EndSplineSet
Validated: 524289
EndChar

StartChar: Adieresis
Encoding: 196 196 109
Width: 375
Flags: W
HStem: 0 67.5<159.363 221.25> 270 67.5<159.363 221.25> 405.75 67.5<148 219.5 254 322.5>
VStem: 52.5 67.5<106.568 230.932> 148 71.5<405.75 473.25> 255 67.5<0 337.5 405.75 473.25>
LayerCount: 2
Fore
SplineSet
322.5 405.75 m 5
 254 405.75 l 5
 254 473.25 l 5
 322.5 473.25 l 5
 322.5 405.75 l 5
219.5 405.75 m 5
 148 405.75 l 5
 148 473.25 l 5
 219.5 473.25 l 5
 219.5 405.75 l 5
255 337.5 m 1
 322.5 337.5 l 1
 322.5 0 l 1
 255 0 l 1
 255 337.5 l 1
221.25 337.5 m 1
 221.25 270 l 1
 165.352 270 120 224.648 120 168.75 c 0
 120 112.852 165.352 67.5 221.25 67.5 c 1
 221.25 0 l 1
 128.027 0 52.5 75.5859 52.5 168.75 c 0
 52.5 261.914 128.027 337.5 221.25 337.5 c 1
EndSplineSet
Validated: 524289
EndChar

StartChar: Aring
Encoding: 197 197 110
Width: 375
Flags: W
HStem: 0 67.5<159.363 221.25> 270 67.5<159.363 221.25> 405.75 67.5<55 322.5>
VStem: 52.5 67.5<106.568 230.932> 255 67.5<0 337.5>
LayerCount: 2
Fore
SplineSet
322.5 405.75 m 5
 55 405.75 l 5
 55 473.25 l 5
 322.5 473.25 l 5
 322.5 405.75 l 5
255 337.5 m 5
 322.5 337.5 l 5
 322.5 0 l 5
 255 0 l 5
 255 337.5 l 5
221.25 337.5 m 5
 221.25 270 l 5
 165.352 270 120 224.648 120 168.75 c 4
 120 112.852 165.352 67.5 221.25 67.5 c 5
 221.25 0 l 5
 128.027 0 52.5 75.5859 52.5 168.75 c 4
 52.5 261.914 128.027 337.5 221.25 337.5 c 5
EndSplineSet
Validated: 524289
EndChar

StartChar: Egrave
Encoding: 200 200 111
Width: 369
Flags: HWO
HStem: 0 67.5<49.5 112.002 184.266 319.5> 135 67.5<208.902 252> 270 67.5<49.5 111.977 184.266 319.5> 405.75 67.5<55 82.1185>
VStem: 150.75 101.25<136.284 201.188>
LayerCount: 2
Fore
SplineSet
55 405.75 m 0
 56 406 316.5 406 316.5 406 c 1
 55 473.25 l 1
 55 405.75 l 0
319.5 270 m 1
 184.266 270 l 1
 199.09 250.312 209.812 227.461 214.852 202.5 c 1
 252 202.5 l 1
 252 135 l 1
 214.852 135 l 1
 209.812 109.98 199.031 87.1289 184.266 67.5 c 1
 319.5 67.5 l 1
 319.5 0 l 1
 49.5 0 l 1
 49.5 67.5 l 1
 105.398 67.5 150.75 112.852 150.75 168.75 c 0
 150.75 224.59 105.34 269.941 49.5 270 c 1
 49.5 337.5 l 1
 319.5 337.5 l 1
 319.5 270 l 1
EndSplineSet
EndChar

StartChar: Eacute
Encoding: 201 201 112
Width: 369
Flags: WO
HStem: 0 67.5<49.5 112.002 184.266 319.5> 135 67.5<208.902 252> 270 67.5<49.5 111.977 184.266 319.5> 404.75 67.5<290.881 318>
VStem: 150.75 101.25<136.284 201.188>
LayerCount: 2
Fore
SplineSet
318 472.25 m 4
 317 472 56.5 404.75 56.5 404.75 c 5
 318 404.75 l 5
 318 472.25 l 4
319.5 270 m 5
 184.266 270 l 5
 199.09 250.312 209.812 227.461 214.852 202.5 c 5
 252 202.5 l 5
 252 135 l 5
 214.852 135 l 5
 209.812 109.98 199.031 87.1289 184.266 67.5 c 5
 319.5 67.5 l 5
 319.5 0 l 5
 49.5 0 l 5
 49.5 67.5 l 5
 105.398 67.5 150.75 112.852 150.75 168.75 c 4
 150.75 224.59 105.34 269.941 49.5 270 c 5
 49.5 337.5 l 5
 319.5 337.5 l 5
 319.5 270 l 5
EndSplineSet
Validated: 524289
EndChar

StartChar: Ecircumflex
Encoding: 202 202 113
Width: 369
Flags: W
HStem: 0 67.5<49.5 112.002 184.266 319.5> 135 67.5<208.902 252> 270 67.5<49.5 111.977 184.266 319.5>
VStem: 150.75 101.25<136.284 201.188>
CounterMasks: 1 e0
LayerCount: 2
Fore
SplineSet
318 472.25 m 0
 50 472 l 1
 50.5 404.75 l 1
 318 404.75 l 1
 318 472.25 l 0
319.5 270 m 1
 184.266 270 l 1
 199.09 250.312 209.812 227.461 214.852 202.5 c 1
 252 202.5 l 1
 252 135 l 1
 214.852 135 l 1
 209.812 109.98 199.031 87.1289 184.266 67.5 c 1
 319.5 67.5 l 1
 319.5 0 l 1
 49.5 0 l 1
 49.5 67.5 l 1
 105.398 67.5 150.75 112.852 150.75 168.75 c 0
 150.75 224.59 105.34 269.941 49.5 270 c 1
 49.5 337.5 l 1
 319.5 337.5 l 1
 319.5 270 l 1
EndSplineSet
Validated: 524297
EndChar

StartChar: Edieresis
Encoding: 203 203 114
Width: 369
Flags: W
HStem: 0 67.5<49.5 112.002 184.266 319.5> 135 67.5<208.902 252> 270 67.5<49.5 111.977 184.266 319.5> 405.75 67.5<97 168.5 203 271.5>
VStem: 97 71.5<405.75 473.25> 150.75 101.25<136.284 201.188> 203 68.5<405.75 473.25>
LayerCount: 2
Fore
SplineSet
271.5 405.75 m 1xf2
 203 405.75 l 1
 203 473.25 l 1
 271.5 473.25 l 1
 271.5 405.75 l 1xf2
168.5 405.75 m 1xf8
 97 405.75 l 1
 97 473.25 l 1
 168.5 473.25 l 1
 168.5 405.75 l 1xf8
319.5 270 m 1
 184.266 270 l 1
 199.09 250.312 209.812 227.461 214.852 202.5 c 1
 252 202.5 l 1
 252 135 l 1
 214.852 135 l 1
 209.812 109.98 199.031 87.1289 184.266 67.5 c 1
 319.5 67.5 l 1
 319.5 0 l 1
 49.5 0 l 1
 49.5 67.5 l 1
 105.398 67.5 150.75 112.852 150.75 168.75 c 0xf4
 150.75 224.59 105.34 269.941 49.5 270 c 1
 49.5 337.5 l 1
 319.5 337.5 l 1
 319.5 270 l 1
EndSplineSet
Validated: 524289
EndChar

StartChar: egrave
Encoding: 232 232 115
Width: 378
Flags: W
HStem: 0 67.5<121.5 324> 135 67.5<121.5 256.5> 270 67.5<121.5 324> 405.75 67.5<55 83.0518>
VStem: 54 67.5<67.5 135 202.5 270>
LayerCount: 2
Fore
SplineSet
55 405.75 m 4
 56 406 325.5 473.25 325.5 473.25 c 5
 55 473.25 l 5
 55 405.75 l 4
54 337.5 m 1
 324 337.5 l 1
 324 270 l 1
 121.5 270 l 1
 121.5 202.5 l 1
 256.5 202.5 l 1
 256.5 135 l 1
 121.5 135 l 1
 121.5 67.5 l 1
 324 67.5 l 1
 324 0 l 1
 54 0 l 1
 54 337.5 l 1
54 337.5 m 0
EndSplineSet
Validated: 524289
EndChar

StartChar: eacute
Encoding: 233 233 116
Width: 378
Flags: W
HStem: 0 67.5<121.5 324> 135 67.5<121.5 256.5> 270 67.5<121.5 324> 405.75 67.5<55 83.1561>
VStem: 54 67.5<67.5 135 202.5 270>
LayerCount: 2
Fore
SplineSet
55 405.75 m 4
 56 406 325.5 406 325.5 406 c 5
 55 473.25 l 5
 55 405.75 l 4
54 337.5 m 5
 324 337.5 l 5
 324 270 l 5
 121.5 270 l 5
 121.5 202.5 l 5
 256.5 202.5 l 5
 256.5 135 l 5
 121.5 135 l 5
 121.5 67.5 l 5
 324 67.5 l 5
 324 0 l 5
 54 0 l 5
 54 337.5 l 5
54 337.5 m 4
EndSplineSet
Validated: 524297
EndChar

StartChar: ecircumflex
Encoding: 234 234 117
Width: 378
Flags: W
HStem: 0 67.5<121.5 324> 135 67.5<121.5 256.5> 270 67.5<121.5 324>
VStem: 54 67.5<67.5 135 202.5 270>
CounterMasks: 1 e0
LayerCount: 2
Fore
SplineSet
284 222 m 29,0,-1
55 405.75 m 4,1,-1
 56 406 325.5 406 325.5 406 c 5,4,-1
 326 474 l 5,5,-1
 55 473.25 l 5,6,-1
 55 405.75 l 4,1,-1
54 337.5 m 5,7,-1
 324 337.5 l 5,8,-1
 324 270 l 5,9,-1
 121.5 270 l 5,10,-1
 121.5 202.5 l 5,11,-1
 256.5 202.5 l 5,12,-1
 256.5 135 l 5,13,-1
 121.5 135 l 5,14,-1
 121.5 67.5 l 5,15,-1
 324 67.5 l 5,16,-1
 324 0 l 5,17,-1
 54 0 l 5,18,-1
 54 337.5 l 5,7,-1
54 337.5 m 4,19,-1
EndSplineSet
Validated: 524297
EndChar

StartChar: edieresis
Encoding: 235 235 118
Width: 378
Flags: W
HStem: 0 67.5<121.5 324> 135 67.5<121.5 256.5> 270 67.5<121.5 324>
VStem: 54 67.5<67.5 135 202.5 270>
CounterMasks: 1 e0
LayerCount: 2
Fore
SplineSet
232 405.75 m 0
 233 406 303 406 303 406 c 1
 303 474 l 1
 232 473.25 l 1
 232 405.75 l 0
284 222 m 25
82 405.75 m 0
 83 406 152.5 406 152.5 406 c 1
 153 474 l 1
 82 473.25 l 1
 82 405.75 l 0
54 337.5 m 1
 324 337.5 l 1
 324 270 l 1
 121.5 270 l 1
 121.5 202.5 l 1
 256.5 202.5 l 1
 256.5 135 l 1
 121.5 135 l 1
 121.5 67.5 l 1
 324 67.5 l 1
 324 0 l 1
 54 0 l 1
 54 337.5 l 1
54 337.5 m 0
EndSplineSet
Validated: 524297
EndChar

StartChar: numbersign
Encoding: 35 35 119
Width: 1020
Flags: W
HStem: 0 202.5<189.375 256.875 459.375 526.875 729.375 796.875> 0 67.5<121.875 189.375 256.875 324.375 391.875 459.375 526.875 594.375 661.875 729.375 796.875 858.738> 270 67.5<796.875 858.738>
VStem: 54.375 67.5<67.5 337.5> 189.375 67.5<67.5 202.5> 324.375 67.5<67.5 270> 459.375 67.5<67.5 202.5> 594.375 67.5<67.5 270> 729.375 67.5<67.5 202.5> 898.125 67.5<106.544 230.934>
LayerCount: 2
Fore
SplineSet
54.375 337.5 m 1x7fc0
 121.875 337.5 l 1
 121.875 67.5 l 1
 189.375 67.5 l 1x7fc0
 189.375 202.5 l 1
 256.875 202.5 l 1xbfc0
 256.875 67.5 l 1
 324.375 67.5 l 1
 324.375 270 l 1
 391.875 270 l 1
 391.875 67.5 l 1
 459.375 67.5 l 1x7fc0
 459.375 202.5 l 1
 526.875 202.5 l 1xbfc0
 526.875 67.5 l 1
 594.375 67.5 l 1
 594.375 270 l 1
 661.875 270 l 1
 661.875 67.5 l 1
 729.375 67.5 l 1x7fc0
 729.375 202.5 l 1
 796.875 202.5 l 1xbfc0
 796.875 67.5 l 1x7fc0
 852.78 67.5 898.125 112.8 898.125 168.75 c 0
 898.125 224.655 852.78 270 796.875 270 c 1
 796.875 337.5 l 1
 890.04 337.5 965.625 261.915 965.625 168.75 c 0
 965.625 75.5244 890.04 0 796.875 0 c 2xbfc0
 54.375 0 l 1
 54.375 337.5 l 1x7fc0
EndSplineSet
Validated: 524289
EndChar

StartChar: ograve
Encoding: 242 242 120
Width: 438
Flags: HW
LayerCount: 2
Fore
SplineSet
55 405.75 m 4
 56 406 387.5 473.25 387.5 473.25 c 5
 55 473.25 l 5
 55 405.75 l 4
219 337.5 m 4
 312.223 337.5 387.75 261.973 387.75 168.75 c 4
 387.75 75.5859 312.223 0 219 0 c 4
 125.777 0 50.25 75.5859 50.25 168.75 c 4
 50.25 261.973 125.777 337.5 219 337.5 c 4
219 270 m 4
 163.102 270 117.75 224.634 117.75 168.75 c 4
 117.75 112.837 163.102 67.5 219 67.5 c 4
 274.898 67.5 320.25 112.837 320.25 168.75 c 4
 320.25 224.634 274.898 270 219 270 c 4
219 270 m 4
EndSplineSet
EndChar

StartChar: oacute
Encoding: 243 243 121
Width: 438
Flags: HW
LayerCount: 2
Fore
SplineSet
55 405.75 m 0
 56 406 387.5 406 387.5 406 c 1
 55 473.25 l 1
 55 405.75 l 0
219 337.5 m 0
 312.223 337.5 387.75 261.973 387.75 168.75 c 0
 387.75 75.5859 312.223 0 219 0 c 0
 125.777 0 50.25 75.5859 50.25 168.75 c 0
 50.25 261.973 125.777 337.5 219 337.5 c 0
219 270 m 0
 163.102 270 117.75 224.634 117.75 168.75 c 0
 117.75 112.837 163.102 67.5 219 67.5 c 0
 274.898 67.5 320.25 112.837 320.25 168.75 c 0
 320.25 224.634 274.898 270 219 270 c 0
219 270 m 0
EndSplineSet
EndChar

StartChar: ocircumflex
Encoding: 244 244 122
Width: 438
Flags: HW
LayerCount: 2
Fore
SplineSet
392 392 m 26,0,0
55 405.75 m 0,0,-1
 55.4565 405.864 388.035 403.982 388 408 c 2,0,0
 387.5 473.25 l 1,3,-1
 55 473.25 l 1,4,-1
 55 405.75 l 0,0,-1
219 337.5 m 0,0,1
 312.223 337.5 387.75 261.973 387.75 168.75 c 0,2,3
 387.75 75.5859 312.223 0 219 0 c 0,4,5
 125.777 0 50.25 75.5859 50.25 168.75 c 0,6,7
 50.25 261.973 125.777 337.5 219 337.5 c 0,0,1
219 270 m 0,8,9
 163.102 270 117.75 224.634 117.75 168.75 c 0,10,11
 117.75 112.837 163.102 67.5 219 67.5 c 0,12,13
 274.898 67.5 320.25 112.837 320.25 168.75 c 0,14,15
 320.25 224.634 274.898 270 219 270 c 0,8,9
219 270 m 0
EndSplineSet
EndChar
